G75*
%MOIN*%
%OFA0B0*%
%FSLAX24Y24*%
%IPPOS*%
%LPD*%
%AMOC8*
5,1,8,0,0,1.08239X$1,22.5*
%
%ADD10C,0.0680*%
%ADD11R,0.0680X0.0680*%
%ADD12OC8,0.0680*%
%ADD13R,0.1205X0.1205*%
%ADD14C,0.1280*%
%ADD15C,0.1852*%
%ADD16OC8,0.0600*%
%ADD17C,0.0600*%
D10*
X007349Y002546D02*
X007949Y002546D01*
X007949Y003546D02*
X007349Y003546D01*
X007349Y004546D02*
X007949Y004546D01*
X020118Y004130D02*
X020118Y003530D01*
X021118Y003530D02*
X021118Y004130D01*
X022118Y004130D02*
X022118Y003530D01*
X023118Y003530D02*
X023118Y004130D01*
X024118Y004130D02*
X024118Y003530D01*
X025118Y003530D02*
X025118Y004130D01*
X024925Y029514D02*
X024925Y030114D01*
X023925Y030114D02*
X023925Y029514D01*
X022925Y029514D02*
X022925Y030114D01*
X021925Y030114D02*
X021925Y029514D01*
X020925Y029514D02*
X020925Y030114D01*
X019925Y030114D02*
X019925Y029514D01*
D11*
X014523Y026074D03*
X037964Y003940D03*
D12*
X037964Y004940D03*
X037964Y005940D03*
X037964Y006940D03*
X037964Y007940D03*
X037964Y008940D03*
X037964Y009940D03*
X037964Y002940D03*
X014523Y008074D03*
X013523Y008074D03*
X012523Y008074D03*
X011523Y008074D03*
X010523Y008074D03*
X009523Y008074D03*
X008523Y008074D03*
X007523Y008074D03*
X006523Y008074D03*
X005523Y008074D03*
X005523Y026074D03*
X006523Y026074D03*
X007523Y026074D03*
X008523Y026074D03*
X009523Y026074D03*
X010523Y026074D03*
X011523Y026074D03*
X012523Y026074D03*
X013523Y026074D03*
D13*
X012901Y017412D03*
X005256Y017460D03*
D14*
X032964Y009440D03*
X032964Y003440D03*
D15*
X003122Y002834D03*
X004893Y004062D03*
X003122Y005243D03*
D16*
X003606Y022050D03*
X004606Y022050D03*
X005681Y021944D03*
X006756Y022050D03*
X007756Y022050D03*
X005681Y022944D03*
X011086Y022050D03*
X012086Y022050D03*
X013161Y021944D03*
X014236Y022050D03*
X015236Y022050D03*
X013161Y022944D03*
D17*
X031027Y026849D03*
X031027Y029849D03*
X037027Y029849D03*
X037027Y026849D03*
M02*
