%
M48
M72
T01C0.0200
T02C0.0320
T03C0.0400
T04C0.0750
T05C0.1200
T06C0.1250
%
T01
X5287Y14964
X4489Y15350
X6849Y16110
X7529Y18190
X5681Y19688
X12767Y14964
X13555Y19688
X19289Y17590
X20089Y19710
X20609Y21070
X21129Y21070
X21649Y21070
X22129Y21070
X22089Y19710
X22569Y19710
X21569Y19710
X20089Y13270
X20569Y12230
X21049Y12230
X21569Y12790
X22089Y12510
X22569Y12510
X19569Y12230
T02
X15236Y22050
X14236Y22050
X13161Y21944
X13161Y22944
X12086Y22050
X11086Y22050
X7756Y22050
X6756Y22050
X5681Y21944
X5681Y22944
X4606Y22050
X3606Y22050
X31027Y26849
X31027Y29849
X37027Y29849
X37027Y26849
T03
X24925Y29814
X23925Y29814
X22925Y29814
X21925Y29814
X20925Y29814
X19925Y29814
X14523Y26074
X13523Y26074
X12523Y26074
X11523Y26074
X10523Y26074
X9523Y26074
X8523Y26074
X7523Y26074
X6523Y26074
X5523Y26074
X5523Y8074
X6523Y8074
X7523Y8074
X8523Y8074
X9523Y8074
X10523Y8074
X11523Y8074
X12523Y8074
X13523Y8074
X14523Y8074
X20118Y3830
X21118Y3830
X22118Y3830
X23118Y3830
X24118Y3830
X25118Y3830
X37964Y3940
X37964Y4940
X37964Y5940
X37964Y6940
X37964Y7940
X37964Y8940
X37964Y9940
X37964Y2940
X7649Y2546
X7649Y3546
X7649Y4546
T04
X5256Y17460
X12901Y17412
T05
X32964Y9440
X32964Y3440
T06
X3122Y2834
X4893Y4062
X3122Y5243
M30
