G75*
%MOIN*%
%OFA0B0*%
%FSLAX24Y24*%
%IPPOS*%
%LPD*%
%AMOC8*
5,1,8,0,0,1.08239X$1,22.5*
%
%ADD10C,0.0600*%
%ADD11R,0.0600X0.0600*%
%ADD12OC8,0.0600*%
%ADD13R,0.1125X0.1125*%
%ADD14C,0.1772*%
%ADD15OC8,0.0520*%
%ADD16C,0.0520*%
%ADD17C,0.0080*%
%ADD18C,0.0360*%
%ADD19C,0.0200*%
%ADD20C,0.0138*%
%ADD21OC8,0.0360*%
D10*
X007349Y002546D02*
X007949Y002546D01*
X007949Y003546D02*
X007349Y003546D01*
X007349Y004546D02*
X007949Y004546D01*
X020118Y004130D02*
X020118Y003530D01*
X021118Y003530D02*
X021118Y004130D01*
X022118Y004130D02*
X022118Y003530D01*
X023118Y003530D02*
X023118Y004130D01*
X024118Y004130D02*
X024118Y003530D01*
X025118Y003530D02*
X025118Y004130D01*
X024925Y029514D02*
X024925Y030114D01*
X023925Y030114D02*
X023925Y029514D01*
X022925Y029514D02*
X022925Y030114D01*
X021925Y030114D02*
X021925Y029514D01*
X020925Y029514D02*
X020925Y030114D01*
X019925Y030114D02*
X019925Y029514D01*
D11*
X014523Y026074D03*
X037964Y003940D03*
D12*
X037964Y004940D03*
X037964Y005940D03*
X037964Y006940D03*
X037964Y007940D03*
X037964Y008940D03*
X037964Y009940D03*
X037964Y002940D03*
X014523Y008074D03*
X013523Y008074D03*
X012523Y008074D03*
X011523Y008074D03*
X010523Y008074D03*
X009523Y008074D03*
X008523Y008074D03*
X007523Y008074D03*
X006523Y008074D03*
X005523Y008074D03*
X005523Y026074D03*
X006523Y026074D03*
X007523Y026074D03*
X008523Y026074D03*
X009523Y026074D03*
X010523Y026074D03*
X011523Y026074D03*
X012523Y026074D03*
X013523Y026074D03*
D13*
X012901Y017412D03*
X005256Y017460D03*
D14*
X003122Y005243D03*
X004893Y004062D03*
X003122Y002834D03*
D15*
X003606Y022050D03*
X004606Y022050D03*
X005681Y021944D03*
X006756Y022050D03*
X007756Y022050D03*
X005681Y022944D03*
X011086Y022050D03*
X012086Y022050D03*
X013161Y021944D03*
X014236Y022050D03*
X015236Y022050D03*
X013161Y022944D03*
D16*
X031027Y026849D03*
X031027Y029849D03*
X037027Y029849D03*
X037027Y026849D03*
D17*
X023129Y020750D02*
X014929Y020750D01*
X013129Y022550D01*
X012049Y022550D01*
X008529Y026070D01*
X008523Y026074D01*
X008089Y025910D02*
X008089Y026270D01*
X008329Y026510D01*
X010089Y026510D01*
X010489Y026110D01*
X010523Y026074D01*
X009929Y026070D02*
X012649Y023350D01*
X015409Y023350D01*
X017369Y021390D01*
X020809Y021390D01*
X021129Y021070D01*
X021169Y021550D02*
X021649Y021070D01*
X022129Y021070D02*
X016689Y026510D01*
X012329Y026510D01*
X011929Y026110D01*
X011529Y026110D01*
X011523Y026074D01*
X012523Y026074D02*
X012529Y026070D01*
X012929Y026070D01*
X017449Y021550D01*
X021169Y021550D01*
X023129Y020750D02*
X037369Y006510D01*
X038009Y006510D01*
X038409Y006110D01*
X038409Y005790D01*
X037969Y005350D01*
X037969Y004950D01*
X037964Y004940D01*
X037929Y005910D02*
X037964Y005940D01*
X037929Y005910D02*
X028129Y005910D01*
X025289Y003070D01*
X014529Y003070D01*
X009529Y008070D01*
X009523Y008074D01*
X004489Y015350D02*
X004489Y020190D01*
X006369Y022070D01*
X006369Y025950D01*
X006489Y026070D01*
X006523Y026074D01*
X008089Y025910D02*
X011489Y022510D01*
X011489Y022070D01*
X012969Y020590D01*
X016729Y020590D01*
X019609Y017710D01*
X019609Y013310D01*
X019969Y012950D01*
X020329Y012950D01*
X021049Y012230D01*
X020569Y012230D02*
X020569Y007350D01*
X024089Y003830D01*
X024118Y003830D01*
X021118Y003830D02*
X021089Y003830D01*
X007529Y017390D01*
X007529Y018190D01*
X007809Y016110D02*
X006849Y016110D01*
X007809Y016110D02*
X020089Y003830D01*
X020118Y003830D01*
X022089Y012510D02*
X022089Y019710D01*
X022569Y019710D02*
X022569Y012510D01*
X021569Y012790D02*
X021569Y019710D01*
X020089Y019710D02*
X020089Y013270D01*
X009929Y026070D02*
X009529Y026070D01*
X009523Y026074D01*
D18*
X007529Y018190D03*
X006849Y016110D03*
X004489Y015350D03*
X019289Y017590D03*
X020089Y019710D03*
X020609Y021070D03*
X021129Y021070D03*
X021649Y021070D03*
X022129Y021070D03*
X022089Y019710D03*
X022569Y019710D03*
X021569Y019710D03*
X020089Y013270D03*
X020569Y012230D03*
X021049Y012230D03*
X021569Y012790D03*
X022089Y012510D03*
X022569Y012510D03*
X019569Y012230D03*
D19*
X019529Y012310D01*
X019289Y012550D01*
X019289Y017590D01*
X020609Y021070D02*
X016209Y021070D01*
X015249Y022030D01*
X015236Y022050D01*
X014236Y022050D02*
X014209Y022070D01*
X014009Y022070D01*
X013169Y022910D01*
X013161Y022944D01*
X013555Y019688D02*
X013569Y019670D01*
X013649Y019590D01*
X013649Y016750D01*
X012769Y015870D01*
X012769Y014990D01*
X012767Y014964D01*
X006009Y016830D02*
X006009Y019350D01*
X005689Y019670D01*
X005681Y019688D01*
X006009Y016830D02*
X005289Y016110D01*
X005289Y014990D01*
X005287Y014964D01*
X019569Y012230D02*
X019569Y007390D01*
X023129Y003830D01*
X023118Y003830D01*
D20*
X000638Y001259D02*
X000638Y031818D01*
X039070Y031818D01*
X039070Y001259D01*
X000638Y001259D01*
X000638Y001336D02*
X039070Y001336D01*
X039070Y001472D02*
X000638Y001472D01*
X000638Y001608D02*
X039070Y001608D01*
X039070Y001744D02*
X000638Y001744D01*
X000638Y001881D02*
X002670Y001881D01*
X002717Y001858D02*
X002829Y001819D01*
X002945Y001792D01*
X003053Y001780D01*
X003053Y002765D01*
X003191Y002765D01*
X003191Y002903D01*
X004175Y002903D01*
X004163Y003011D01*
X004137Y003126D01*
X004098Y003238D01*
X004046Y003345D01*
X003983Y003445D01*
X003909Y003538D01*
X003826Y003622D01*
X003733Y003695D01*
X003633Y003759D01*
X003526Y003810D01*
X003414Y003849D01*
X003299Y003875D01*
X003191Y003888D01*
X003191Y002903D01*
X003053Y002903D01*
X003053Y003888D01*
X002945Y003875D01*
X002829Y003849D01*
X002717Y003810D01*
X002611Y003759D01*
X002510Y003695D01*
X002418Y003622D01*
X002334Y003538D01*
X002260Y003445D01*
X002197Y003345D01*
X002146Y003238D01*
X002107Y003126D01*
X002080Y003011D01*
X002068Y002903D01*
X003053Y002903D01*
X003053Y002765D01*
X002068Y002765D01*
X002080Y002657D01*
X002107Y002541D01*
X002146Y002430D01*
X002197Y002323D01*
X002260Y002223D01*
X002334Y002130D01*
X002418Y002046D01*
X002510Y001972D01*
X002611Y001909D01*
X002717Y001858D01*
X002454Y002017D02*
X000638Y002017D01*
X000638Y002153D02*
X002315Y002153D01*
X002218Y002290D02*
X000638Y002290D01*
X000638Y002426D02*
X002147Y002426D01*
X002102Y002562D02*
X000638Y002562D01*
X000638Y002698D02*
X002076Y002698D01*
X002076Y002971D02*
X000638Y002971D01*
X000638Y002835D02*
X003053Y002835D01*
X003053Y002971D02*
X003191Y002971D01*
X003191Y002835D02*
X007003Y002835D01*
X006969Y002801D02*
X006900Y002636D01*
X006900Y002457D01*
X006969Y002292D01*
X007095Y002166D01*
X007260Y002097D01*
X008039Y002097D01*
X008203Y002166D01*
X008330Y002292D01*
X008398Y002457D01*
X008398Y002636D01*
X008330Y002801D01*
X008203Y002927D01*
X008039Y002995D01*
X007260Y002995D01*
X007095Y002927D01*
X006969Y002801D01*
X006926Y002698D02*
X004168Y002698D01*
X004163Y002657D02*
X004175Y002765D01*
X003191Y002765D01*
X003191Y001780D01*
X003299Y001792D01*
X003414Y001819D01*
X003526Y001858D01*
X003633Y001909D01*
X003733Y001972D01*
X003826Y002046D01*
X003909Y002130D01*
X003983Y002223D01*
X004046Y002323D01*
X004098Y002430D01*
X004137Y002541D01*
X004163Y002657D01*
X004141Y002562D02*
X006900Y002562D01*
X006913Y002426D02*
X004096Y002426D01*
X004025Y002290D02*
X006971Y002290D01*
X007125Y002153D02*
X003928Y002153D01*
X003789Y002017D02*
X039070Y002017D01*
X039070Y001881D02*
X003573Y001881D01*
X003191Y001881D02*
X003053Y001881D01*
X003053Y002017D02*
X003191Y002017D01*
X003191Y002153D02*
X003053Y002153D01*
X003053Y002290D02*
X003191Y002290D01*
X003191Y002426D02*
X003053Y002426D01*
X003053Y002562D02*
X003191Y002562D01*
X003191Y002698D02*
X003053Y002698D01*
X003053Y003107D02*
X003191Y003107D01*
X003191Y003244D02*
X003053Y003244D01*
X003053Y003380D02*
X003191Y003380D01*
X003191Y003516D02*
X003053Y003516D01*
X003053Y003653D02*
X003191Y003653D01*
X003191Y003789D02*
X003053Y003789D01*
X002674Y003789D02*
X000638Y003789D01*
X000638Y003925D02*
X003847Y003925D01*
X003852Y003885D02*
X003840Y003993D01*
X004824Y003993D01*
X004824Y004131D01*
X003840Y004131D01*
X003852Y004239D01*
X003878Y004354D01*
X003917Y004466D01*
X003969Y004573D01*
X004032Y004673D01*
X004106Y004766D01*
X004189Y004850D01*
X004282Y004924D01*
X004382Y004987D01*
X004489Y005038D01*
X004601Y005077D01*
X004716Y005103D01*
X004824Y005116D01*
X004824Y004131D01*
X004962Y004131D01*
X004962Y005116D01*
X005070Y005103D01*
X005186Y005077D01*
X005298Y005038D01*
X005404Y004987D01*
X005505Y004924D01*
X005597Y004850D01*
X005681Y004766D01*
X005755Y004673D01*
X005818Y004573D01*
X005869Y004466D01*
X005908Y004354D01*
X005935Y004239D01*
X005947Y004131D01*
X004962Y004131D01*
X004962Y003993D01*
X004962Y003008D01*
X005070Y003021D01*
X005186Y003047D01*
X005298Y003086D01*
X005404Y003137D01*
X005505Y003200D01*
X005597Y003274D01*
X005681Y003358D01*
X005755Y003451D01*
X005818Y003551D01*
X005869Y003658D01*
X005908Y003770D01*
X005935Y003885D01*
X005947Y003993D01*
X004962Y003993D01*
X004824Y003993D01*
X004824Y003008D01*
X004716Y003021D01*
X004601Y003047D01*
X004489Y003086D01*
X004382Y003137D01*
X004282Y003200D01*
X004189Y003274D01*
X004106Y003358D01*
X004032Y003451D01*
X003969Y003551D01*
X003917Y003658D01*
X003878Y003770D01*
X003852Y003885D01*
X003874Y003789D02*
X003570Y003789D01*
X003787Y003653D02*
X003920Y003653D01*
X003927Y003516D02*
X003991Y003516D01*
X004024Y003380D02*
X004088Y003380D01*
X004095Y003244D02*
X004228Y003244D01*
X004141Y003107D02*
X004445Y003107D01*
X004168Y002971D02*
X007202Y002971D01*
X007239Y003089D02*
X007312Y003077D01*
X007618Y003077D01*
X007618Y003515D01*
X007680Y003515D01*
X007680Y003077D01*
X007986Y003077D01*
X008059Y003089D01*
X008129Y003112D01*
X008195Y003145D01*
X008255Y003189D01*
X008307Y003241D01*
X008350Y003301D01*
X008384Y003366D01*
X008407Y003436D01*
X008418Y003509D01*
X008418Y003515D01*
X007680Y003515D01*
X007680Y003577D01*
X008418Y003577D01*
X008418Y003583D01*
X008407Y003656D01*
X008384Y003726D01*
X008350Y003792D01*
X008307Y003852D01*
X008255Y003904D01*
X008195Y003947D01*
X008129Y003981D01*
X008059Y004004D01*
X007986Y004015D01*
X007680Y004015D01*
X007680Y003577D01*
X007618Y003577D01*
X007618Y003515D01*
X006880Y003515D01*
X006880Y003509D01*
X006892Y003436D01*
X006915Y003366D01*
X006948Y003301D01*
X006992Y003241D01*
X007044Y003189D01*
X007103Y003145D01*
X007169Y003112D01*
X007239Y003089D01*
X007183Y003107D02*
X005342Y003107D01*
X005559Y003244D02*
X006989Y003244D01*
X006910Y003380D02*
X005698Y003380D01*
X005796Y003516D02*
X007618Y003516D01*
X007618Y003577D02*
X006880Y003577D01*
X006880Y003583D01*
X006892Y003656D01*
X006915Y003726D01*
X006948Y003792D01*
X006992Y003852D01*
X007044Y003904D01*
X007103Y003947D01*
X007169Y003981D01*
X007239Y004004D01*
X007312Y004015D01*
X007618Y004015D01*
X007618Y003577D01*
X007618Y003653D02*
X007680Y003653D01*
X007680Y003789D02*
X007618Y003789D01*
X007618Y003925D02*
X007680Y003925D01*
X008039Y004097D02*
X007260Y004097D01*
X007095Y004166D01*
X006969Y004292D01*
X006900Y004457D01*
X006900Y004636D01*
X006969Y004801D01*
X007095Y004927D01*
X007260Y004995D01*
X008039Y004995D01*
X008203Y004927D01*
X008330Y004801D01*
X008398Y004636D01*
X008398Y004457D01*
X008330Y004292D01*
X008203Y004166D01*
X008039Y004097D01*
X008236Y004198D02*
X013134Y004198D01*
X012998Y004334D02*
X008347Y004334D01*
X008398Y004470D02*
X012862Y004470D01*
X012725Y004607D02*
X008398Y004607D01*
X008354Y004743D02*
X012589Y004743D01*
X012453Y004879D02*
X008251Y004879D01*
X008225Y003925D02*
X013407Y003925D01*
X013543Y003789D02*
X008352Y003789D01*
X008407Y003653D02*
X013680Y003653D01*
X013816Y003516D02*
X007680Y003516D01*
X007680Y003380D02*
X007618Y003380D01*
X007618Y003244D02*
X007680Y003244D01*
X007680Y003107D02*
X007618Y003107D01*
X008097Y002971D02*
X014361Y002971D01*
X014451Y002881D02*
X025367Y002881D01*
X025478Y002992D01*
X028207Y005721D01*
X037548Y005721D01*
X037778Y005491D01*
X037842Y005491D01*
X037780Y005429D01*
X037780Y005389D01*
X037778Y005389D01*
X037515Y005126D01*
X037515Y004754D01*
X037778Y004491D01*
X038150Y004491D01*
X038413Y004754D01*
X038413Y005126D01*
X038212Y005327D01*
X038487Y005601D01*
X038598Y005712D01*
X038598Y006189D01*
X038223Y006564D01*
X038413Y006754D01*
X038413Y007126D01*
X038150Y007389D01*
X037778Y007389D01*
X037515Y007126D01*
X037515Y006754D01*
X037570Y006699D01*
X037447Y006699D01*
X023318Y020829D01*
X023207Y020939D01*
X022431Y020939D01*
X022458Y021005D01*
X022458Y021136D01*
X022408Y021257D01*
X022315Y021349D01*
X022194Y021399D01*
X022067Y021399D01*
X016767Y026699D01*
X012251Y026699D01*
X012140Y026589D01*
X011892Y026340D01*
X011709Y026523D01*
X011337Y026523D01*
X011074Y026260D01*
X011074Y025888D01*
X011337Y025625D01*
X011709Y025625D01*
X011972Y025888D01*
X011972Y025921D01*
X012007Y025921D01*
X012074Y025989D01*
X012074Y025888D01*
X012337Y025625D01*
X012709Y025625D01*
X012908Y025824D01*
X015193Y023539D01*
X012727Y023539D01*
X010641Y025625D01*
X010709Y025625D01*
X010972Y025888D01*
X010972Y026260D01*
X010709Y026523D01*
X010344Y026523D01*
X010167Y026699D01*
X008251Y026699D01*
X008140Y026589D01*
X007900Y026349D01*
X007900Y026332D01*
X007709Y026523D01*
X007337Y026523D01*
X007074Y026260D01*
X007074Y025888D01*
X007337Y025625D01*
X007709Y025625D01*
X007908Y025824D01*
X008011Y025721D01*
X011300Y022432D01*
X011300Y022415D01*
X011256Y022459D01*
X010917Y022459D01*
X010677Y022220D01*
X010677Y021881D01*
X010917Y021641D01*
X011256Y021641D01*
X011453Y021839D01*
X012891Y020401D01*
X016651Y020401D01*
X019159Y017893D01*
X019103Y017869D01*
X019010Y017777D01*
X018960Y017656D01*
X018960Y017525D01*
X019010Y017404D01*
X019040Y017374D01*
X019040Y012501D01*
X019078Y012409D01*
X019240Y012247D01*
X019240Y012165D01*
X019290Y012044D01*
X019320Y012014D01*
X019320Y007440D01*
X019320Y007341D01*
X019358Y007249D01*
X022019Y004589D01*
X022008Y004587D01*
X021938Y004564D01*
X021872Y004531D01*
X021812Y004487D01*
X021760Y004435D01*
X021717Y004375D01*
X021683Y004310D01*
X021660Y004240D01*
X021649Y004167D01*
X021649Y003861D01*
X022087Y003861D01*
X022087Y003799D01*
X021649Y003799D01*
X021649Y003493D01*
X021660Y003420D01*
X021683Y003350D01*
X021717Y003284D01*
X021735Y003259D01*
X021482Y003259D01*
X021498Y003275D01*
X021567Y003440D01*
X021567Y004219D01*
X021498Y004384D01*
X021372Y004510D01*
X021207Y004579D01*
X021028Y004579D01*
X020863Y004510D01*
X020770Y004417D01*
X007718Y017469D01*
X007718Y017914D01*
X007808Y018004D01*
X007858Y018125D01*
X007858Y018256D01*
X007808Y018377D01*
X007715Y018469D01*
X007594Y018519D01*
X007463Y018519D01*
X007343Y018469D01*
X007250Y018377D01*
X007200Y018256D01*
X007200Y018125D01*
X007250Y018004D01*
X007340Y017914D01*
X007340Y017312D01*
X020073Y004579D01*
X020028Y004579D01*
X019863Y004510D01*
X019770Y004417D01*
X007887Y016299D01*
X007125Y016299D01*
X007035Y016389D01*
X006914Y016439D01*
X006783Y016439D01*
X006663Y016389D01*
X006570Y016297D01*
X006520Y016176D01*
X006520Y016045D01*
X006570Y015924D01*
X006663Y015832D01*
X006783Y015781D01*
X006914Y015781D01*
X007035Y015832D01*
X007125Y015921D01*
X007731Y015921D01*
X019669Y003983D01*
X019669Y003440D01*
X019737Y003275D01*
X019753Y003259D01*
X014607Y003259D01*
X009972Y007894D01*
X009972Y008260D01*
X009709Y008523D01*
X009337Y008523D01*
X009074Y008260D01*
X009074Y007888D01*
X009337Y007625D01*
X009707Y007625D01*
X014451Y002881D01*
X014225Y003107D02*
X008116Y003107D01*
X008309Y003244D02*
X014088Y003244D01*
X013952Y003380D02*
X008388Y003380D01*
X008296Y002835D02*
X032079Y002835D01*
X032109Y002784D02*
X032308Y002585D01*
X032552Y002444D01*
X032823Y002371D01*
X033105Y002371D01*
X033377Y002444D01*
X033620Y002585D01*
X033820Y002784D01*
X033960Y003027D01*
X034033Y003299D01*
X034033Y003581D01*
X033960Y003853D01*
X033820Y004096D01*
X033620Y004295D01*
X033377Y004436D01*
X033105Y004509D01*
X032823Y004509D01*
X032552Y004436D01*
X032308Y004295D01*
X032109Y004096D01*
X031968Y003853D01*
X031895Y003581D01*
X031895Y003299D01*
X031968Y003027D01*
X032109Y002784D01*
X032194Y002698D02*
X008372Y002698D01*
X008398Y002562D02*
X032347Y002562D01*
X032619Y002426D02*
X008385Y002426D01*
X008327Y002290D02*
X039070Y002290D01*
X039070Y002426D02*
X033310Y002426D01*
X033582Y002562D02*
X037707Y002562D01*
X037778Y002491D02*
X038150Y002491D01*
X038413Y002754D01*
X038413Y003126D01*
X038150Y003389D01*
X037778Y003389D01*
X037515Y003126D01*
X037515Y002754D01*
X037778Y002491D01*
X037571Y002698D02*
X033734Y002698D01*
X033849Y002835D02*
X037515Y002835D01*
X037515Y002971D02*
X033928Y002971D01*
X033982Y003107D02*
X037515Y003107D01*
X037633Y003244D02*
X034018Y003244D01*
X034033Y003380D02*
X037769Y003380D01*
X037642Y003471D02*
X037933Y003471D01*
X037933Y003909D01*
X037495Y003909D01*
X037495Y003618D01*
X037507Y003575D01*
X037529Y003536D01*
X037560Y003505D01*
X037599Y003483D01*
X037642Y003471D01*
X037549Y003516D02*
X034033Y003516D01*
X034014Y003653D02*
X037495Y003653D01*
X037495Y003789D02*
X033977Y003789D01*
X033918Y003925D02*
X037933Y003925D01*
X037933Y003909D02*
X037933Y003971D01*
X037495Y003971D01*
X037495Y004262D01*
X037507Y004305D01*
X037529Y004344D01*
X037560Y004375D01*
X037599Y004397D01*
X037642Y004409D01*
X037933Y004409D01*
X037933Y003971D01*
X037995Y003971D01*
X037995Y004409D01*
X038286Y004409D01*
X038329Y004397D01*
X038368Y004375D01*
X038399Y004344D01*
X038422Y004305D01*
X038433Y004262D01*
X038433Y003971D01*
X037995Y003971D01*
X037995Y003909D01*
X037995Y003471D01*
X038286Y003471D01*
X038329Y003483D01*
X038368Y003505D01*
X038399Y003536D01*
X038422Y003575D01*
X038433Y003618D01*
X038433Y003909D01*
X037995Y003909D01*
X037933Y003909D01*
X037995Y003925D02*
X039070Y003925D01*
X039070Y003789D02*
X038433Y003789D01*
X038433Y003653D02*
X039070Y003653D01*
X039070Y003516D02*
X038379Y003516D01*
X038159Y003380D02*
X039070Y003380D01*
X039070Y003244D02*
X038295Y003244D01*
X038413Y003107D02*
X039070Y003107D01*
X039070Y002971D02*
X038413Y002971D01*
X038413Y002835D02*
X039070Y002835D01*
X039070Y002698D02*
X038358Y002698D01*
X038221Y002562D02*
X039070Y002562D01*
X039070Y002153D02*
X008174Y002153D01*
X006891Y003653D02*
X005867Y003653D01*
X005913Y003789D02*
X006947Y003789D01*
X007073Y003925D02*
X005939Y003925D01*
X005939Y004198D02*
X007063Y004198D01*
X006951Y004334D02*
X005913Y004334D01*
X005867Y004470D02*
X006900Y004470D01*
X006900Y004607D02*
X005797Y004607D01*
X005699Y004743D02*
X006945Y004743D01*
X007047Y004879D02*
X005560Y004879D01*
X005344Y005016D02*
X012317Y005016D01*
X012180Y005152D02*
X004156Y005152D01*
X004156Y005107D02*
X004086Y004844D01*
X003950Y004608D01*
X003757Y004415D01*
X003521Y004279D01*
X003258Y004208D01*
X002985Y004208D01*
X002722Y004279D01*
X002486Y004415D01*
X002294Y004608D01*
X002157Y004844D01*
X002087Y005107D01*
X002087Y005379D01*
X002157Y005642D01*
X002294Y005878D01*
X002486Y006071D01*
X002722Y006207D01*
X002985Y006278D01*
X003258Y006278D01*
X003521Y006207D01*
X003757Y006071D01*
X003950Y005878D01*
X004086Y005642D01*
X004156Y005379D01*
X004156Y005107D01*
X004132Y005016D02*
X004442Y005016D01*
X004226Y004879D02*
X004095Y004879D01*
X004087Y004743D02*
X004028Y004743D01*
X003990Y004607D02*
X003948Y004607D01*
X003919Y004470D02*
X003812Y004470D01*
X003874Y004334D02*
X003617Y004334D01*
X003847Y004198D02*
X000638Y004198D01*
X000638Y004334D02*
X002627Y004334D01*
X002431Y004470D02*
X000638Y004470D01*
X000638Y004607D02*
X002295Y004607D01*
X002216Y004743D02*
X000638Y004743D01*
X000638Y004879D02*
X002148Y004879D01*
X002111Y005016D02*
X000638Y005016D01*
X000638Y005152D02*
X002087Y005152D01*
X002087Y005288D02*
X000638Y005288D01*
X000638Y005424D02*
X002099Y005424D01*
X002136Y005561D02*
X000638Y005561D01*
X000638Y005697D02*
X002189Y005697D01*
X002268Y005833D02*
X000638Y005833D01*
X000638Y005970D02*
X002385Y005970D01*
X002547Y006106D02*
X000638Y006106D01*
X000638Y006242D02*
X002852Y006242D01*
X003391Y006242D02*
X011090Y006242D01*
X011226Y006106D02*
X003697Y006106D01*
X003858Y005970D02*
X011363Y005970D01*
X011499Y005833D02*
X003976Y005833D01*
X004054Y005697D02*
X011635Y005697D01*
X011771Y005561D02*
X004108Y005561D01*
X004144Y005424D02*
X011908Y005424D01*
X012044Y005288D02*
X004156Y005288D01*
X004824Y005016D02*
X004962Y005016D01*
X004962Y004879D02*
X004824Y004879D01*
X004824Y004743D02*
X004962Y004743D01*
X004962Y004607D02*
X004824Y004607D01*
X004824Y004470D02*
X004962Y004470D01*
X004962Y004334D02*
X004824Y004334D01*
X004824Y004198D02*
X004962Y004198D01*
X004962Y004061D02*
X013271Y004061D01*
X013532Y004334D02*
X019318Y004334D01*
X019182Y004470D02*
X013396Y004470D01*
X013260Y004607D02*
X019045Y004607D01*
X018909Y004743D02*
X013123Y004743D01*
X012987Y004879D02*
X018773Y004879D01*
X018637Y005016D02*
X012851Y005016D01*
X012715Y005152D02*
X018500Y005152D01*
X018364Y005288D02*
X012578Y005288D01*
X012442Y005424D02*
X018228Y005424D01*
X018091Y005561D02*
X012306Y005561D01*
X012169Y005697D02*
X017955Y005697D01*
X017819Y005833D02*
X012033Y005833D01*
X011897Y005970D02*
X017683Y005970D01*
X017546Y006106D02*
X011761Y006106D01*
X011624Y006242D02*
X017410Y006242D01*
X017274Y006378D02*
X011488Y006378D01*
X011352Y006515D02*
X017137Y006515D01*
X017001Y006651D02*
X011215Y006651D01*
X011079Y006787D02*
X016865Y006787D01*
X016728Y006924D02*
X010943Y006924D01*
X010806Y007060D02*
X016592Y007060D01*
X016456Y007196D02*
X010670Y007196D01*
X010534Y007333D02*
X016320Y007333D01*
X016183Y007469D02*
X010398Y007469D01*
X010337Y007625D02*
X010709Y007625D01*
X010972Y007888D01*
X010972Y008260D01*
X010709Y008523D01*
X010337Y008523D01*
X010074Y008260D01*
X010074Y007888D01*
X010337Y007625D01*
X010261Y007605D02*
X014329Y007605D01*
X014054Y007880D01*
X014054Y008043D01*
X014492Y008043D01*
X014492Y008105D01*
X014054Y008105D01*
X014054Y008268D01*
X014329Y008543D01*
X014492Y008543D01*
X014492Y008105D01*
X014554Y008105D01*
X014554Y008543D01*
X014717Y008543D01*
X014992Y008268D01*
X014992Y008105D01*
X014554Y008105D01*
X014554Y008043D01*
X014554Y007605D01*
X014717Y007605D01*
X014992Y007880D01*
X014992Y008043D01*
X014554Y008043D01*
X014492Y008043D01*
X014492Y007605D01*
X014329Y007605D01*
X014492Y007605D02*
X014554Y007605D01*
X014554Y007741D02*
X014492Y007741D01*
X014492Y007878D02*
X014554Y007878D01*
X014554Y008014D02*
X014492Y008014D01*
X014492Y008150D02*
X014554Y008150D01*
X014554Y008287D02*
X014492Y008287D01*
X014492Y008423D02*
X014554Y008423D01*
X014837Y008423D02*
X015229Y008423D01*
X015093Y008559D02*
X000638Y008559D01*
X000638Y008423D02*
X005237Y008423D01*
X005337Y008523D02*
X005074Y008260D01*
X005074Y007888D01*
X005337Y007625D01*
X005709Y007625D01*
X005972Y007888D01*
X005972Y008260D01*
X005709Y008523D01*
X005337Y008523D01*
X005101Y008287D02*
X000638Y008287D01*
X000638Y008150D02*
X005074Y008150D01*
X005074Y008014D02*
X000638Y008014D01*
X000638Y007878D02*
X005084Y007878D01*
X005221Y007741D02*
X000638Y007741D01*
X000638Y007605D02*
X009727Y007605D01*
X009863Y007469D02*
X000638Y007469D01*
X000638Y007333D02*
X010000Y007333D01*
X010136Y007196D02*
X000638Y007196D01*
X000638Y007060D02*
X010272Y007060D01*
X010408Y006924D02*
X000638Y006924D01*
X000638Y006787D02*
X010545Y006787D01*
X010681Y006651D02*
X000638Y006651D01*
X000638Y006515D02*
X010817Y006515D01*
X010954Y006378D02*
X000638Y006378D01*
X000638Y004061D02*
X004824Y004061D01*
X004824Y003925D02*
X004962Y003925D01*
X004962Y003789D02*
X004824Y003789D01*
X004824Y003653D02*
X004962Y003653D01*
X004962Y003516D02*
X004824Y003516D01*
X004824Y003380D02*
X004962Y003380D01*
X004962Y003244D02*
X004824Y003244D01*
X004824Y003107D02*
X004962Y003107D01*
X002457Y003653D02*
X000638Y003653D01*
X000638Y003516D02*
X002317Y003516D01*
X002219Y003380D02*
X000638Y003380D01*
X000638Y003244D02*
X002148Y003244D01*
X002102Y003107D02*
X000638Y003107D01*
X005826Y007741D02*
X006221Y007741D01*
X006337Y007625D02*
X006709Y007625D01*
X006972Y007888D01*
X006972Y008260D01*
X006709Y008523D01*
X006337Y008523D01*
X006074Y008260D01*
X006074Y007888D01*
X006337Y007625D01*
X006084Y007878D02*
X005962Y007878D01*
X005972Y008014D02*
X006074Y008014D01*
X006074Y008150D02*
X005972Y008150D01*
X005945Y008287D02*
X006101Y008287D01*
X006237Y008423D02*
X005809Y008423D01*
X006809Y008423D02*
X007237Y008423D01*
X007337Y008523D02*
X007074Y008260D01*
X007074Y007888D01*
X007337Y007625D01*
X007709Y007625D01*
X007972Y007888D01*
X007972Y008260D01*
X007709Y008523D01*
X007337Y008523D01*
X007101Y008287D02*
X006945Y008287D01*
X006972Y008150D02*
X007074Y008150D01*
X007074Y008014D02*
X006972Y008014D01*
X006962Y007878D02*
X007084Y007878D01*
X007221Y007741D02*
X006826Y007741D01*
X007826Y007741D02*
X008221Y007741D01*
X008337Y007625D02*
X008709Y007625D01*
X008972Y007888D01*
X008972Y008260D01*
X008709Y008523D01*
X008337Y008523D01*
X008074Y008260D01*
X008074Y007888D01*
X008337Y007625D01*
X008084Y007878D02*
X007962Y007878D01*
X007972Y008014D02*
X008074Y008014D01*
X008074Y008150D02*
X007972Y008150D01*
X007945Y008287D02*
X008101Y008287D01*
X008237Y008423D02*
X007809Y008423D01*
X008809Y008423D02*
X009237Y008423D01*
X009101Y008287D02*
X008945Y008287D01*
X008972Y008150D02*
X009074Y008150D01*
X009074Y008014D02*
X008972Y008014D01*
X008962Y007878D02*
X009084Y007878D01*
X009221Y007741D02*
X008826Y007741D01*
X009809Y008423D02*
X010237Y008423D01*
X010101Y008287D02*
X009945Y008287D01*
X009972Y008150D02*
X010074Y008150D01*
X010074Y008014D02*
X009972Y008014D01*
X009989Y007878D02*
X010084Y007878D01*
X010125Y007741D02*
X010221Y007741D01*
X010826Y007741D02*
X011221Y007741D01*
X011337Y007625D02*
X011709Y007625D01*
X011972Y007888D01*
X011972Y008260D01*
X011709Y008523D01*
X011337Y008523D01*
X011074Y008260D01*
X011074Y007888D01*
X011337Y007625D01*
X011084Y007878D02*
X010962Y007878D01*
X010972Y008014D02*
X011074Y008014D01*
X011074Y008150D02*
X010972Y008150D01*
X010945Y008287D02*
X011101Y008287D01*
X011237Y008423D02*
X010809Y008423D01*
X011809Y008423D02*
X012237Y008423D01*
X012337Y008523D02*
X012074Y008260D01*
X012074Y007888D01*
X012337Y007625D01*
X012709Y007625D01*
X012972Y007888D01*
X012972Y008260D01*
X012709Y008523D01*
X012337Y008523D01*
X012101Y008287D02*
X011945Y008287D01*
X011972Y008150D02*
X012074Y008150D01*
X012074Y008014D02*
X011972Y008014D01*
X011962Y007878D02*
X012084Y007878D01*
X012221Y007741D02*
X011826Y007741D01*
X012826Y007741D02*
X013221Y007741D01*
X013337Y007625D02*
X013709Y007625D01*
X013972Y007888D01*
X013972Y008260D01*
X013709Y008523D01*
X013337Y008523D01*
X013074Y008260D01*
X013074Y007888D01*
X013337Y007625D01*
X013084Y007878D02*
X012962Y007878D01*
X012972Y008014D02*
X013074Y008014D01*
X013074Y008150D02*
X012972Y008150D01*
X012945Y008287D02*
X013101Y008287D01*
X013237Y008423D02*
X012809Y008423D01*
X013809Y008423D02*
X014209Y008423D01*
X014073Y008287D02*
X013945Y008287D01*
X013972Y008150D02*
X014054Y008150D01*
X014054Y008014D02*
X013972Y008014D01*
X013962Y007878D02*
X014056Y007878D01*
X014193Y007741D02*
X013826Y007741D01*
X014718Y007605D02*
X016047Y007605D01*
X015911Y007741D02*
X014854Y007741D01*
X014990Y007878D02*
X015774Y007878D01*
X015638Y008014D02*
X014992Y008014D01*
X014992Y008150D02*
X015502Y008150D01*
X015366Y008287D02*
X014974Y008287D01*
X014957Y008695D02*
X000638Y008695D01*
X000638Y008832D02*
X014820Y008832D01*
X014684Y008968D02*
X000638Y008968D01*
X000638Y009104D02*
X014548Y009104D01*
X014411Y009241D02*
X000638Y009241D01*
X000638Y009377D02*
X014275Y009377D01*
X014139Y009513D02*
X000638Y009513D01*
X000638Y009650D02*
X014003Y009650D01*
X013866Y009786D02*
X000638Y009786D01*
X000638Y009922D02*
X013730Y009922D01*
X013594Y010058D02*
X000638Y010058D01*
X000638Y010195D02*
X013457Y010195D01*
X013321Y010331D02*
X000638Y010331D01*
X000638Y010467D02*
X013185Y010467D01*
X013048Y010604D02*
X000638Y010604D01*
X000638Y010740D02*
X012912Y010740D01*
X012776Y010876D02*
X000638Y010876D01*
X000638Y011013D02*
X012640Y011013D01*
X012503Y011149D02*
X000638Y011149D01*
X000638Y011285D02*
X012367Y011285D01*
X012231Y011421D02*
X000638Y011421D01*
X000638Y011558D02*
X012094Y011558D01*
X011958Y011694D02*
X000638Y011694D01*
X000638Y011830D02*
X011822Y011830D01*
X011686Y011967D02*
X000638Y011967D01*
X000638Y012103D02*
X011549Y012103D01*
X011413Y012239D02*
X000638Y012239D01*
X000638Y012375D02*
X011277Y012375D01*
X011140Y012512D02*
X000638Y012512D01*
X000638Y012648D02*
X011004Y012648D01*
X010868Y012784D02*
X000638Y012784D01*
X000638Y012921D02*
X010731Y012921D01*
X010595Y013057D02*
X000638Y013057D01*
X000638Y013193D02*
X010459Y013193D01*
X010323Y013330D02*
X000638Y013330D01*
X000638Y013466D02*
X010186Y013466D01*
X010050Y013602D02*
X000638Y013602D01*
X000638Y013738D02*
X009914Y013738D01*
X009777Y013875D02*
X000638Y013875D01*
X000638Y014011D02*
X009641Y014011D01*
X009505Y014147D02*
X000638Y014147D01*
X000638Y014284D02*
X009368Y014284D01*
X009232Y014420D02*
X000638Y014420D01*
X000638Y014556D02*
X009096Y014556D01*
X008960Y014692D02*
X005481Y014692D01*
X005423Y014635D02*
X005616Y014827D01*
X005616Y015100D01*
X005538Y015178D01*
X005538Y016007D01*
X006220Y016689D01*
X006258Y016781D01*
X006258Y019400D01*
X006220Y019491D01*
X006010Y019702D01*
X006010Y019824D01*
X005817Y020017D01*
X005544Y020017D01*
X005352Y019824D01*
X005352Y019552D01*
X005544Y019359D01*
X005648Y019359D01*
X005760Y019247D01*
X005760Y018171D01*
X004678Y018171D01*
X004678Y020112D01*
X006397Y021831D01*
X006586Y021641D01*
X006925Y021641D01*
X007164Y021881D01*
X007164Y022220D01*
X006925Y022459D01*
X006586Y022459D01*
X006558Y022431D01*
X006558Y025625D01*
X006709Y025625D01*
X006972Y025888D01*
X006972Y026260D01*
X006709Y026523D01*
X006337Y026523D01*
X006074Y026260D01*
X006074Y025888D01*
X006180Y025782D01*
X006180Y022149D01*
X006090Y022058D01*
X006090Y022113D01*
X005850Y022353D01*
X005511Y022353D01*
X005272Y022113D01*
X005272Y021775D01*
X005511Y021535D01*
X005566Y021535D01*
X004300Y020269D01*
X004300Y015627D01*
X004210Y015537D01*
X004160Y015416D01*
X004160Y015285D01*
X004210Y015164D01*
X004303Y015072D01*
X004423Y015021D01*
X004554Y015021D01*
X004675Y015072D01*
X004768Y015164D01*
X004818Y015285D01*
X004818Y015416D01*
X004768Y015537D01*
X004678Y015627D01*
X004678Y016748D01*
X005575Y016748D01*
X005078Y016251D01*
X005040Y016160D01*
X005040Y015182D01*
X004958Y015100D01*
X004958Y014827D01*
X005151Y014635D01*
X005423Y014635D01*
X005616Y014829D02*
X008823Y014829D01*
X008687Y014965D02*
X005616Y014965D01*
X005614Y015101D02*
X008551Y015101D01*
X008414Y015238D02*
X005538Y015238D01*
X005538Y015374D02*
X008278Y015374D01*
X008142Y015510D02*
X005538Y015510D01*
X005538Y015647D02*
X008006Y015647D01*
X007869Y015783D02*
X006918Y015783D01*
X006780Y015783D02*
X005538Y015783D01*
X005538Y015919D02*
X006575Y015919D01*
X006520Y016055D02*
X005586Y016055D01*
X005722Y016192D02*
X006527Y016192D01*
X006601Y016328D02*
X005859Y016328D01*
X005995Y016464D02*
X008188Y016464D01*
X008324Y016328D02*
X007096Y016328D01*
X007123Y015919D02*
X007733Y015919D01*
X007995Y016192D02*
X008460Y016192D01*
X008597Y016055D02*
X008131Y016055D01*
X008267Y015919D02*
X008733Y015919D01*
X008869Y015783D02*
X008404Y015783D01*
X008540Y015647D02*
X009006Y015647D01*
X009142Y015510D02*
X008676Y015510D01*
X008812Y015374D02*
X009278Y015374D01*
X009414Y015238D02*
X008949Y015238D01*
X009085Y015101D02*
X009551Y015101D01*
X009687Y014965D02*
X009221Y014965D01*
X009358Y014829D02*
X009823Y014829D01*
X009960Y014692D02*
X009494Y014692D01*
X009630Y014556D02*
X010096Y014556D01*
X010232Y014420D02*
X009766Y014420D01*
X009903Y014284D02*
X010368Y014284D01*
X010505Y014147D02*
X010039Y014147D01*
X010175Y014011D02*
X010641Y014011D01*
X010777Y013875D02*
X010312Y013875D01*
X010448Y013738D02*
X010914Y013738D01*
X011050Y013602D02*
X010584Y013602D01*
X010721Y013466D02*
X011186Y013466D01*
X011323Y013330D02*
X010857Y013330D01*
X010993Y013193D02*
X011459Y013193D01*
X011595Y013057D02*
X011129Y013057D01*
X011266Y012921D02*
X011731Y012921D01*
X011868Y012784D02*
X011402Y012784D01*
X011538Y012648D02*
X012004Y012648D01*
X012140Y012512D02*
X011675Y012512D01*
X011811Y012375D02*
X012277Y012375D01*
X012413Y012239D02*
X011947Y012239D01*
X012084Y012103D02*
X012549Y012103D01*
X012686Y011967D02*
X012220Y011967D01*
X012356Y011830D02*
X012822Y011830D01*
X012958Y011694D02*
X012492Y011694D01*
X012629Y011558D02*
X013094Y011558D01*
X013231Y011421D02*
X012765Y011421D01*
X012901Y011285D02*
X013367Y011285D01*
X013503Y011149D02*
X013038Y011149D01*
X013174Y011013D02*
X013640Y011013D01*
X013776Y010876D02*
X013310Y010876D01*
X013446Y010740D02*
X013912Y010740D01*
X014048Y010604D02*
X013583Y010604D01*
X013719Y010467D02*
X014185Y010467D01*
X014321Y010331D02*
X013855Y010331D01*
X013992Y010195D02*
X014457Y010195D01*
X014594Y010058D02*
X014128Y010058D01*
X014264Y009922D02*
X014730Y009922D01*
X014866Y009786D02*
X014401Y009786D01*
X014537Y009650D02*
X015003Y009650D01*
X015139Y009513D02*
X014673Y009513D01*
X014809Y009377D02*
X015275Y009377D01*
X015411Y009241D02*
X014946Y009241D01*
X015082Y009104D02*
X015548Y009104D01*
X015684Y008968D02*
X015218Y008968D01*
X015355Y008832D02*
X015820Y008832D01*
X015957Y008695D02*
X015491Y008695D01*
X015627Y008559D02*
X016093Y008559D01*
X016229Y008423D02*
X015763Y008423D01*
X015900Y008287D02*
X016366Y008287D01*
X016502Y008150D02*
X016036Y008150D01*
X016172Y008014D02*
X016638Y008014D01*
X016774Y007878D02*
X016309Y007878D01*
X016445Y007741D02*
X016911Y007741D01*
X017047Y007605D02*
X016581Y007605D01*
X016718Y007469D02*
X017183Y007469D01*
X017320Y007333D02*
X016854Y007333D01*
X016990Y007196D02*
X017456Y007196D01*
X017592Y007060D02*
X017126Y007060D01*
X017263Y006924D02*
X017728Y006924D01*
X017865Y006787D02*
X017399Y006787D01*
X017535Y006651D02*
X018001Y006651D01*
X018137Y006515D02*
X017672Y006515D01*
X017808Y006378D02*
X018274Y006378D01*
X018410Y006242D02*
X017944Y006242D01*
X018081Y006106D02*
X018546Y006106D01*
X018683Y005970D02*
X018217Y005970D01*
X018353Y005833D02*
X018819Y005833D01*
X018955Y005697D02*
X018489Y005697D01*
X018626Y005561D02*
X019091Y005561D01*
X019228Y005424D02*
X018762Y005424D01*
X018898Y005288D02*
X019364Y005288D01*
X019500Y005152D02*
X019035Y005152D01*
X019171Y005016D02*
X019637Y005016D01*
X019773Y004879D02*
X019307Y004879D01*
X019443Y004743D02*
X019909Y004743D01*
X020045Y004607D02*
X019580Y004607D01*
X019716Y004470D02*
X019823Y004470D01*
X019454Y004198D02*
X013669Y004198D01*
X013805Y004061D02*
X019591Y004061D01*
X019669Y003925D02*
X013941Y003925D01*
X014078Y003789D02*
X019669Y003789D01*
X019669Y003653D02*
X014214Y003653D01*
X014350Y003516D02*
X019669Y003516D01*
X019694Y003380D02*
X014486Y003380D01*
X018399Y006787D02*
X019820Y006787D01*
X019956Y006651D02*
X018535Y006651D01*
X018672Y006515D02*
X020092Y006515D01*
X020229Y006378D02*
X018808Y006378D01*
X018944Y006242D02*
X020365Y006242D01*
X020501Y006106D02*
X019081Y006106D01*
X019217Y005970D02*
X020638Y005970D01*
X020774Y005833D02*
X019353Y005833D01*
X019489Y005697D02*
X020910Y005697D01*
X021047Y005561D02*
X019626Y005561D01*
X019762Y005424D02*
X021183Y005424D01*
X021319Y005288D02*
X019898Y005288D01*
X020035Y005152D02*
X021455Y005152D01*
X021592Y005016D02*
X020171Y005016D01*
X020307Y004879D02*
X021728Y004879D01*
X021864Y004743D02*
X020443Y004743D01*
X020580Y004607D02*
X022001Y004607D01*
X021795Y004470D02*
X021412Y004470D01*
X021519Y004334D02*
X021696Y004334D01*
X021654Y004198D02*
X021567Y004198D01*
X021567Y004061D02*
X021649Y004061D01*
X021649Y003925D02*
X021567Y003925D01*
X021567Y003789D02*
X021649Y003789D01*
X021649Y003653D02*
X021567Y003653D01*
X021567Y003516D02*
X021649Y003516D01*
X021673Y003380D02*
X021542Y003380D01*
X022149Y003799D02*
X022149Y003861D01*
X022587Y003861D01*
X022587Y004021D01*
X022669Y003938D01*
X022669Y003440D01*
X022737Y003275D01*
X022753Y003259D01*
X022501Y003259D01*
X022519Y003284D01*
X022552Y003350D01*
X022575Y003420D01*
X022587Y003493D01*
X022587Y003799D01*
X022149Y003799D01*
X022587Y003789D02*
X022669Y003789D01*
X022669Y003925D02*
X022587Y003925D01*
X022587Y003653D02*
X022669Y003653D01*
X022669Y003516D02*
X022587Y003516D01*
X022562Y003380D02*
X022694Y003380D01*
X020823Y004470D02*
X020716Y004470D01*
X019684Y006924D02*
X018263Y006924D01*
X018126Y007060D02*
X019547Y007060D01*
X019411Y007196D02*
X017990Y007196D01*
X017854Y007333D02*
X019323Y007333D01*
X019320Y007469D02*
X017718Y007469D01*
X017581Y007605D02*
X019320Y007605D01*
X019320Y007741D02*
X017445Y007741D01*
X017309Y007878D02*
X019320Y007878D01*
X019320Y008014D02*
X017172Y008014D01*
X017036Y008150D02*
X019320Y008150D01*
X019320Y008287D02*
X016900Y008287D01*
X016763Y008423D02*
X019320Y008423D01*
X019320Y008559D02*
X016627Y008559D01*
X016491Y008695D02*
X019320Y008695D01*
X019320Y008832D02*
X016355Y008832D01*
X016218Y008968D02*
X019320Y008968D01*
X019320Y009104D02*
X016082Y009104D01*
X015946Y009241D02*
X019320Y009241D01*
X019320Y009377D02*
X015809Y009377D01*
X015673Y009513D02*
X019320Y009513D01*
X019320Y009650D02*
X015537Y009650D01*
X015401Y009786D02*
X019320Y009786D01*
X019320Y009922D02*
X015264Y009922D01*
X015128Y010058D02*
X019320Y010058D01*
X019320Y010195D02*
X014992Y010195D01*
X014855Y010331D02*
X019320Y010331D01*
X019320Y010467D02*
X014719Y010467D01*
X014583Y010604D02*
X019320Y010604D01*
X019320Y010740D02*
X014446Y010740D01*
X014310Y010876D02*
X019320Y010876D01*
X019320Y011013D02*
X014174Y011013D01*
X014038Y011149D02*
X019320Y011149D01*
X019320Y011285D02*
X013901Y011285D01*
X013765Y011421D02*
X019320Y011421D01*
X019320Y011558D02*
X013629Y011558D01*
X013492Y011694D02*
X019320Y011694D01*
X019320Y011830D02*
X013356Y011830D01*
X013220Y011967D02*
X019320Y011967D01*
X019266Y012103D02*
X013084Y012103D01*
X012947Y012239D02*
X019240Y012239D01*
X019112Y012375D02*
X012811Y012375D01*
X012675Y012512D02*
X019040Y012512D01*
X019040Y012648D02*
X012538Y012648D01*
X012402Y012784D02*
X019040Y012784D01*
X019040Y012921D02*
X012266Y012921D01*
X012129Y013057D02*
X019040Y013057D01*
X019040Y013193D02*
X011993Y013193D01*
X011857Y013330D02*
X019040Y013330D01*
X019040Y013466D02*
X011721Y013466D01*
X011584Y013602D02*
X019040Y013602D01*
X019040Y013738D02*
X011448Y013738D01*
X011312Y013875D02*
X019040Y013875D01*
X019040Y014011D02*
X011175Y014011D01*
X011039Y014147D02*
X019040Y014147D01*
X019040Y014284D02*
X010903Y014284D01*
X010766Y014420D02*
X019040Y014420D01*
X019040Y014556D02*
X010630Y014556D01*
X010494Y014692D02*
X012573Y014692D01*
X012631Y014635D02*
X012904Y014635D01*
X013096Y014827D01*
X013096Y015100D01*
X013018Y015178D01*
X013018Y015767D01*
X013790Y016539D01*
X013860Y016609D01*
X013898Y016701D01*
X013898Y019640D01*
X013884Y019674D01*
X013884Y019824D01*
X013691Y020017D01*
X013418Y020017D01*
X013226Y019824D01*
X013226Y019552D01*
X013400Y019378D01*
X013400Y018124D01*
X012277Y018124D01*
X012190Y018037D01*
X012190Y016788D01*
X012277Y016701D01*
X013248Y016701D01*
X012558Y016011D01*
X012520Y015920D01*
X012520Y015181D01*
X012438Y015100D01*
X012438Y014827D01*
X012631Y014635D01*
X012438Y014829D02*
X010358Y014829D01*
X010221Y014965D02*
X012438Y014965D01*
X012440Y015101D02*
X010085Y015101D01*
X009949Y015238D02*
X012520Y015238D01*
X012520Y015374D02*
X009812Y015374D01*
X009676Y015510D02*
X012520Y015510D01*
X012520Y015647D02*
X009540Y015647D01*
X009404Y015783D02*
X012520Y015783D01*
X012520Y015919D02*
X009267Y015919D01*
X009131Y016055D02*
X012602Y016055D01*
X012738Y016192D02*
X008995Y016192D01*
X008858Y016328D02*
X012875Y016328D01*
X013011Y016464D02*
X008722Y016464D01*
X008586Y016601D02*
X013147Y016601D01*
X013579Y016328D02*
X019040Y016328D01*
X019040Y016192D02*
X013442Y016192D01*
X013306Y016055D02*
X019040Y016055D01*
X019040Y015919D02*
X013170Y015919D01*
X013033Y015783D02*
X019040Y015783D01*
X019040Y015647D02*
X013018Y015647D01*
X013018Y015510D02*
X019040Y015510D01*
X019040Y015374D02*
X013018Y015374D01*
X013018Y015238D02*
X019040Y015238D01*
X019040Y015101D02*
X013095Y015101D01*
X013096Y014965D02*
X019040Y014965D01*
X019040Y014829D02*
X013096Y014829D01*
X012961Y014692D02*
X019040Y014692D01*
X019040Y016464D02*
X013715Y016464D01*
X013851Y016601D02*
X019040Y016601D01*
X019040Y016737D02*
X013898Y016737D01*
X013898Y016873D02*
X019040Y016873D01*
X019040Y017010D02*
X013898Y017010D01*
X013898Y017146D02*
X019040Y017146D01*
X019040Y017282D02*
X013898Y017282D01*
X013898Y017418D02*
X019004Y017418D01*
X018960Y017555D02*
X013898Y017555D01*
X013898Y017691D02*
X018975Y017691D01*
X019061Y017827D02*
X013898Y017827D01*
X013898Y017964D02*
X019089Y017964D01*
X018952Y018100D02*
X013898Y018100D01*
X013898Y018236D02*
X018816Y018236D01*
X018680Y018372D02*
X013898Y018372D01*
X013898Y018509D02*
X018543Y018509D01*
X018407Y018645D02*
X013898Y018645D01*
X013898Y018781D02*
X018271Y018781D01*
X018134Y018918D02*
X013898Y018918D01*
X013898Y019054D02*
X017998Y019054D01*
X017862Y019190D02*
X013898Y019190D01*
X013898Y019327D02*
X017726Y019327D01*
X017589Y019463D02*
X013898Y019463D01*
X013898Y019599D02*
X017453Y019599D01*
X017317Y019735D02*
X013884Y019735D01*
X013836Y019872D02*
X017180Y019872D01*
X017044Y020008D02*
X013700Y020008D01*
X013410Y020008D02*
X005826Y020008D01*
X005962Y019872D02*
X013273Y019872D01*
X013226Y019735D02*
X006010Y019735D01*
X006112Y019599D02*
X013226Y019599D01*
X013315Y019463D02*
X006232Y019463D01*
X006258Y019327D02*
X013400Y019327D01*
X013400Y019190D02*
X006258Y019190D01*
X006258Y019054D02*
X013400Y019054D01*
X013400Y018918D02*
X006258Y018918D01*
X006258Y018781D02*
X013400Y018781D01*
X013400Y018645D02*
X006258Y018645D01*
X006258Y018509D02*
X007438Y018509D01*
X007620Y018509D02*
X013400Y018509D01*
X013400Y018372D02*
X007809Y018372D01*
X007858Y018236D02*
X013400Y018236D01*
X012253Y018100D02*
X007847Y018100D01*
X007767Y017964D02*
X012190Y017964D01*
X012190Y017827D02*
X007718Y017827D01*
X007718Y017691D02*
X012190Y017691D01*
X012190Y017555D02*
X007718Y017555D01*
X007768Y017418D02*
X012190Y017418D01*
X012190Y017282D02*
X007904Y017282D01*
X008041Y017146D02*
X012190Y017146D01*
X012190Y017010D02*
X008177Y017010D01*
X008313Y016873D02*
X012190Y016873D01*
X012241Y016737D02*
X008449Y016737D01*
X008051Y016601D02*
X006131Y016601D01*
X006240Y016737D02*
X007915Y016737D01*
X007779Y016873D02*
X006258Y016873D01*
X006258Y017010D02*
X007643Y017010D01*
X007506Y017146D02*
X006258Y017146D01*
X006258Y017282D02*
X007370Y017282D01*
X007340Y017418D02*
X006258Y017418D01*
X006258Y017555D02*
X007340Y017555D01*
X007340Y017691D02*
X006258Y017691D01*
X006258Y017827D02*
X007340Y017827D01*
X007291Y017964D02*
X006258Y017964D01*
X006258Y018100D02*
X007210Y018100D01*
X007200Y018236D02*
X006258Y018236D01*
X006258Y018372D02*
X007248Y018372D01*
X005760Y018372D02*
X004678Y018372D01*
X004678Y018236D02*
X005760Y018236D01*
X005760Y018509D02*
X004678Y018509D01*
X004678Y018645D02*
X005760Y018645D01*
X005760Y018781D02*
X004678Y018781D01*
X004678Y018918D02*
X005760Y018918D01*
X005760Y019054D02*
X004678Y019054D01*
X004678Y019190D02*
X005760Y019190D01*
X005681Y019327D02*
X004678Y019327D01*
X004678Y019463D02*
X005441Y019463D01*
X005352Y019599D02*
X004678Y019599D01*
X004678Y019735D02*
X005352Y019735D01*
X005399Y019872D02*
X004678Y019872D01*
X004678Y020008D02*
X005536Y020008D01*
X004983Y020417D02*
X012875Y020417D01*
X012739Y020553D02*
X005119Y020553D01*
X005255Y020690D02*
X012603Y020690D01*
X012466Y020826D02*
X005391Y020826D01*
X005528Y020962D02*
X012330Y020962D01*
X012194Y021098D02*
X005664Y021098D01*
X005800Y021235D02*
X012057Y021235D01*
X011921Y021371D02*
X005937Y021371D01*
X006073Y021507D02*
X011785Y021507D01*
X011649Y021644D02*
X011258Y021644D01*
X011394Y021780D02*
X011512Y021780D01*
X010915Y021644D02*
X007955Y021644D01*
X007933Y021621D02*
X008184Y021873D01*
X008184Y022039D01*
X007767Y022039D01*
X007767Y022061D01*
X008184Y022061D01*
X008184Y022228D01*
X007933Y022479D01*
X007767Y022479D01*
X007767Y022061D01*
X007744Y022061D01*
X007744Y022039D01*
X007327Y022039D01*
X007327Y021873D01*
X007578Y021621D01*
X007744Y021621D01*
X007744Y022039D01*
X007767Y022039D01*
X007767Y021621D01*
X007933Y021621D01*
X007767Y021644D02*
X007744Y021644D01*
X007744Y021780D02*
X007767Y021780D01*
X007767Y021916D02*
X007744Y021916D01*
X007744Y022052D02*
X007164Y022052D01*
X007164Y021916D02*
X007327Y021916D01*
X007327Y022061D02*
X007744Y022061D01*
X007744Y022479D01*
X007578Y022479D01*
X007327Y022228D01*
X007327Y022061D01*
X007327Y022189D02*
X007164Y022189D01*
X007059Y022325D02*
X007424Y022325D01*
X007560Y022461D02*
X006558Y022461D01*
X006558Y022598D02*
X011134Y022598D01*
X010998Y022734D02*
X006558Y022734D01*
X006558Y022870D02*
X010862Y022870D01*
X010726Y023007D02*
X006558Y023007D01*
X006558Y023143D02*
X010589Y023143D01*
X010453Y023279D02*
X006558Y023279D01*
X006558Y023415D02*
X010317Y023415D01*
X010180Y023552D02*
X006558Y023552D01*
X006558Y023688D02*
X010044Y023688D01*
X009908Y023824D02*
X006558Y023824D01*
X006558Y023961D02*
X009772Y023961D01*
X009635Y024097D02*
X006558Y024097D01*
X006558Y024233D02*
X009499Y024233D01*
X009363Y024369D02*
X006558Y024369D01*
X006558Y024506D02*
X009226Y024506D01*
X009090Y024642D02*
X006558Y024642D01*
X006558Y024778D02*
X008954Y024778D01*
X008817Y024915D02*
X006558Y024915D01*
X006558Y025051D02*
X008681Y025051D01*
X008545Y025187D02*
X006558Y025187D01*
X006558Y025324D02*
X008409Y025324D01*
X008272Y025460D02*
X006558Y025460D01*
X006558Y025596D02*
X008136Y025596D01*
X008000Y025732D02*
X007817Y025732D01*
X007230Y025732D02*
X006817Y025732D01*
X006953Y025869D02*
X007093Y025869D01*
X007074Y026005D02*
X006972Y026005D01*
X006972Y026141D02*
X007074Y026141D01*
X007092Y026278D02*
X006954Y026278D01*
X006818Y026414D02*
X007228Y026414D01*
X007818Y026414D02*
X007965Y026414D01*
X008102Y026550D02*
X000638Y026550D01*
X000638Y026414D02*
X005228Y026414D01*
X005337Y026523D02*
X005074Y026260D01*
X005074Y025888D01*
X005337Y025625D01*
X005709Y025625D01*
X005972Y025888D01*
X005972Y026260D01*
X005709Y026523D01*
X005337Y026523D01*
X005092Y026278D02*
X000638Y026278D01*
X000638Y026141D02*
X005074Y026141D01*
X005074Y026005D02*
X000638Y026005D01*
X000638Y025869D02*
X005093Y025869D01*
X005230Y025732D02*
X000638Y025732D01*
X000638Y025596D02*
X006180Y025596D01*
X006180Y025460D02*
X000638Y025460D01*
X000638Y025324D02*
X006180Y025324D01*
X006180Y025187D02*
X000638Y025187D01*
X000638Y025051D02*
X006180Y025051D01*
X006180Y024915D02*
X000638Y024915D01*
X000638Y024778D02*
X006180Y024778D01*
X006180Y024642D02*
X000638Y024642D01*
X000638Y024506D02*
X006180Y024506D01*
X006180Y024369D02*
X000638Y024369D01*
X000638Y024233D02*
X006180Y024233D01*
X006180Y024097D02*
X000638Y024097D01*
X000638Y023961D02*
X006180Y023961D01*
X006180Y023824D02*
X000638Y023824D01*
X000638Y023688D02*
X006180Y023688D01*
X006180Y023552D02*
X000638Y023552D01*
X000638Y023415D02*
X006180Y023415D01*
X006180Y023279D02*
X005924Y023279D01*
X005850Y023353D02*
X005511Y023353D01*
X005272Y023113D01*
X005272Y022775D01*
X005511Y022535D01*
X005850Y022535D01*
X006090Y022775D01*
X006090Y023113D01*
X005850Y023353D01*
X006060Y023143D02*
X006180Y023143D01*
X006180Y023007D02*
X006090Y023007D01*
X006090Y022870D02*
X006180Y022870D01*
X006180Y022734D02*
X006049Y022734D01*
X006180Y022598D02*
X005913Y022598D01*
X005878Y022325D02*
X006180Y022325D01*
X006180Y022189D02*
X006014Y022189D01*
X006180Y022461D02*
X000638Y022461D01*
X000638Y022325D02*
X003302Y022325D01*
X003197Y022220D02*
X003197Y021881D01*
X003437Y021641D01*
X003775Y021641D01*
X004015Y021881D01*
X004015Y022220D01*
X003775Y022459D01*
X003437Y022459D01*
X003197Y022220D01*
X003197Y022189D02*
X000638Y022189D01*
X000638Y022052D02*
X003197Y022052D01*
X003197Y021916D02*
X000638Y021916D01*
X000638Y021780D02*
X003298Y021780D01*
X003434Y021644D02*
X000638Y021644D01*
X000638Y021507D02*
X005539Y021507D01*
X005402Y021371D02*
X000638Y021371D01*
X000638Y021235D02*
X005266Y021235D01*
X005130Y021098D02*
X000638Y021098D01*
X000638Y020962D02*
X004993Y020962D01*
X004857Y020826D02*
X000638Y020826D01*
X000638Y020690D02*
X004721Y020690D01*
X004585Y020553D02*
X000638Y020553D01*
X000638Y020417D02*
X004448Y020417D01*
X004312Y020281D02*
X000638Y020281D01*
X000638Y020144D02*
X004300Y020144D01*
X004300Y020008D02*
X000638Y020008D01*
X000638Y019872D02*
X004300Y019872D01*
X004300Y019735D02*
X000638Y019735D01*
X000638Y019599D02*
X004300Y019599D01*
X004300Y019463D02*
X000638Y019463D01*
X000638Y019327D02*
X004300Y019327D01*
X004300Y019190D02*
X000638Y019190D01*
X000638Y019054D02*
X004300Y019054D01*
X004300Y018918D02*
X000638Y018918D01*
X000638Y018781D02*
X004300Y018781D01*
X004300Y018645D02*
X000638Y018645D01*
X000638Y018509D02*
X004300Y018509D01*
X004300Y018372D02*
X000638Y018372D01*
X000638Y018236D02*
X004300Y018236D01*
X004300Y018100D02*
X000638Y018100D01*
X000638Y017964D02*
X004300Y017964D01*
X004300Y017827D02*
X000638Y017827D01*
X000638Y017691D02*
X004300Y017691D01*
X004300Y017555D02*
X000638Y017555D01*
X000638Y017418D02*
X004300Y017418D01*
X004300Y017282D02*
X000638Y017282D01*
X000638Y017146D02*
X004300Y017146D01*
X004300Y017010D02*
X000638Y017010D01*
X000638Y016873D02*
X004300Y016873D01*
X004300Y016737D02*
X000638Y016737D01*
X000638Y016601D02*
X004300Y016601D01*
X004300Y016464D02*
X000638Y016464D01*
X000638Y016328D02*
X004300Y016328D01*
X004300Y016192D02*
X000638Y016192D01*
X000638Y016055D02*
X004300Y016055D01*
X004300Y015919D02*
X000638Y015919D01*
X000638Y015783D02*
X004300Y015783D01*
X004300Y015647D02*
X000638Y015647D01*
X000638Y015510D02*
X004199Y015510D01*
X004160Y015374D02*
X000638Y015374D01*
X000638Y015238D02*
X004180Y015238D01*
X004273Y015101D02*
X000638Y015101D01*
X000638Y014965D02*
X004958Y014965D01*
X004958Y014829D02*
X000638Y014829D01*
X000638Y014692D02*
X005093Y014692D01*
X004960Y015101D02*
X004705Y015101D01*
X004798Y015238D02*
X005040Y015238D01*
X005040Y015374D02*
X004818Y015374D01*
X004779Y015510D02*
X005040Y015510D01*
X005040Y015647D02*
X004678Y015647D01*
X004678Y015783D02*
X005040Y015783D01*
X005040Y015919D02*
X004678Y015919D01*
X004678Y016055D02*
X005040Y016055D01*
X005053Y016192D02*
X004678Y016192D01*
X004678Y016328D02*
X005155Y016328D01*
X005291Y016464D02*
X004678Y016464D01*
X004678Y016601D02*
X005427Y016601D01*
X005563Y016737D02*
X004678Y016737D01*
X004710Y020144D02*
X016908Y020144D01*
X016771Y020281D02*
X004846Y020281D01*
X004775Y021641D02*
X005015Y021881D01*
X005015Y022220D01*
X004775Y022459D01*
X004437Y022459D01*
X004197Y022220D01*
X004197Y021881D01*
X004437Y021641D01*
X004775Y021641D01*
X004778Y021644D02*
X005403Y021644D01*
X005272Y021780D02*
X004914Y021780D01*
X005015Y021916D02*
X005272Y021916D01*
X005272Y022052D02*
X005015Y022052D01*
X005015Y022189D02*
X005347Y022189D01*
X005484Y022325D02*
X004909Y022325D01*
X005449Y022598D02*
X000638Y022598D01*
X000638Y022734D02*
X005312Y022734D01*
X005272Y022870D02*
X000638Y022870D01*
X000638Y023007D02*
X005272Y023007D01*
X005301Y023143D02*
X000638Y023143D01*
X000638Y023279D02*
X005438Y023279D01*
X004302Y022325D02*
X003909Y022325D01*
X004015Y022189D02*
X004197Y022189D01*
X004197Y022052D02*
X004015Y022052D01*
X004015Y021916D02*
X004197Y021916D01*
X004298Y021780D02*
X003914Y021780D01*
X003778Y021644D02*
X004434Y021644D01*
X006209Y021644D02*
X006584Y021644D01*
X006448Y021780D02*
X006346Y021780D01*
X006927Y021644D02*
X007556Y021644D01*
X007419Y021780D02*
X007063Y021780D01*
X007767Y022052D02*
X010677Y022052D01*
X010677Y021916D02*
X008184Y021916D01*
X008092Y021780D02*
X010778Y021780D01*
X010677Y022189D02*
X008184Y022189D01*
X008087Y022325D02*
X010783Y022325D01*
X011271Y022461D02*
X007951Y022461D01*
X007767Y022461D02*
X007744Y022461D01*
X007744Y022325D02*
X007767Y022325D01*
X007767Y022189D02*
X007744Y022189D01*
X011079Y025187D02*
X013545Y025187D01*
X013681Y025051D02*
X011215Y025051D01*
X011352Y024915D02*
X013817Y024915D01*
X013954Y024778D02*
X011488Y024778D01*
X011624Y024642D02*
X014090Y024642D01*
X014226Y024506D02*
X011761Y024506D01*
X011897Y024369D02*
X014363Y024369D01*
X014499Y024233D02*
X012033Y024233D01*
X012170Y024097D02*
X014635Y024097D01*
X014772Y023961D02*
X012306Y023961D01*
X012442Y023824D02*
X014908Y023824D01*
X015044Y023688D02*
X012578Y023688D01*
X012715Y023552D02*
X015180Y023552D01*
X015331Y023161D02*
X017180Y021312D01*
X017291Y021201D01*
X020731Y021201D01*
X020800Y021132D01*
X020800Y021005D01*
X020827Y020939D01*
X015007Y020939D01*
X014305Y021641D01*
X014405Y021641D01*
X014645Y021881D01*
X014645Y022220D01*
X014405Y022459D01*
X014066Y022459D01*
X014019Y022412D01*
X013570Y022861D01*
X013570Y023113D01*
X013522Y023161D01*
X015331Y023161D01*
X015349Y023143D02*
X013540Y023143D01*
X013570Y023007D02*
X015486Y023007D01*
X015622Y022870D02*
X013570Y022870D01*
X013697Y022734D02*
X015758Y022734D01*
X015894Y022598D02*
X013834Y022598D01*
X013970Y022461D02*
X015040Y022461D01*
X015058Y022479D02*
X014807Y022228D01*
X014807Y022061D01*
X015225Y022061D01*
X015225Y022039D01*
X015247Y022039D01*
X015247Y021621D01*
X015413Y021621D01*
X015665Y021873D01*
X015665Y022039D01*
X015247Y022039D01*
X015247Y022061D01*
X015665Y022061D01*
X015665Y022228D01*
X015413Y022479D01*
X015247Y022479D01*
X015247Y022061D01*
X015225Y022061D01*
X015225Y022479D01*
X015058Y022479D01*
X015225Y022461D02*
X015247Y022461D01*
X015247Y022325D02*
X015225Y022325D01*
X015225Y022189D02*
X015247Y022189D01*
X015247Y022052D02*
X016440Y022052D01*
X016576Y021916D02*
X015665Y021916D01*
X015572Y021780D02*
X016712Y021780D01*
X016849Y021644D02*
X015436Y021644D01*
X015247Y021644D02*
X015225Y021644D01*
X015225Y021621D02*
X015225Y022039D01*
X014807Y022039D01*
X014807Y021873D01*
X015058Y021621D01*
X015225Y021621D01*
X015225Y021780D02*
X015247Y021780D01*
X015247Y021916D02*
X015225Y021916D01*
X015225Y022052D02*
X014645Y022052D01*
X014645Y021916D02*
X014807Y021916D01*
X014900Y021780D02*
X014544Y021780D01*
X014407Y021644D02*
X015036Y021644D01*
X014712Y021235D02*
X017257Y021235D01*
X017121Y021371D02*
X014575Y021371D01*
X014439Y021507D02*
X016985Y021507D01*
X016303Y022189D02*
X015665Y022189D01*
X015568Y022325D02*
X016167Y022325D01*
X016031Y022461D02*
X015431Y022461D01*
X014904Y022325D02*
X014539Y022325D01*
X014645Y022189D02*
X014807Y022189D01*
X014848Y021098D02*
X020800Y021098D01*
X020818Y020962D02*
X014984Y020962D01*
X018824Y024642D02*
X039070Y024642D01*
X039070Y024506D02*
X018961Y024506D01*
X019097Y024369D02*
X039070Y024369D01*
X039070Y024233D02*
X019233Y024233D01*
X019370Y024097D02*
X039070Y024097D01*
X039070Y023961D02*
X019506Y023961D01*
X019642Y023824D02*
X039070Y023824D01*
X039070Y023688D02*
X019778Y023688D01*
X019915Y023552D02*
X039070Y023552D01*
X039070Y023415D02*
X020051Y023415D01*
X020187Y023279D02*
X039070Y023279D01*
X039070Y023143D02*
X020324Y023143D01*
X020460Y023007D02*
X039070Y023007D01*
X039070Y022870D02*
X020596Y022870D01*
X020732Y022734D02*
X039070Y022734D01*
X039070Y022598D02*
X020869Y022598D01*
X021005Y022461D02*
X039070Y022461D01*
X039070Y022325D02*
X021141Y022325D01*
X021278Y022189D02*
X039070Y022189D01*
X039070Y022052D02*
X021414Y022052D01*
X021550Y021916D02*
X039070Y021916D01*
X039070Y021780D02*
X021687Y021780D01*
X021823Y021644D02*
X039070Y021644D01*
X039070Y021507D02*
X021959Y021507D01*
X022263Y021371D02*
X039070Y021371D01*
X039070Y021235D02*
X022417Y021235D01*
X022458Y021098D02*
X039070Y021098D01*
X039070Y020962D02*
X022440Y020962D01*
X023321Y020826D02*
X039070Y020826D01*
X039070Y020690D02*
X023457Y020690D01*
X023593Y020553D02*
X039070Y020553D01*
X039070Y020417D02*
X023729Y020417D01*
X023866Y020281D02*
X039070Y020281D01*
X039070Y020144D02*
X024002Y020144D01*
X024138Y020008D02*
X039070Y020008D01*
X039070Y019872D02*
X024275Y019872D01*
X024411Y019735D02*
X039070Y019735D01*
X039070Y019599D02*
X024547Y019599D01*
X024684Y019463D02*
X039070Y019463D01*
X039070Y019327D02*
X024820Y019327D01*
X024956Y019190D02*
X039070Y019190D01*
X039070Y019054D02*
X025092Y019054D01*
X025229Y018918D02*
X039070Y018918D01*
X039070Y018781D02*
X025365Y018781D01*
X025501Y018645D02*
X039070Y018645D01*
X039070Y018509D02*
X025638Y018509D01*
X025774Y018372D02*
X039070Y018372D01*
X039070Y018236D02*
X025910Y018236D01*
X026047Y018100D02*
X039070Y018100D01*
X039070Y017964D02*
X026183Y017964D01*
X026319Y017827D02*
X039070Y017827D01*
X039070Y017691D02*
X026455Y017691D01*
X026592Y017555D02*
X039070Y017555D01*
X039070Y017418D02*
X026728Y017418D01*
X026864Y017282D02*
X039070Y017282D01*
X039070Y017146D02*
X027001Y017146D01*
X027137Y017010D02*
X039070Y017010D01*
X039070Y016873D02*
X027273Y016873D01*
X027409Y016737D02*
X039070Y016737D01*
X039070Y016601D02*
X027546Y016601D01*
X027682Y016464D02*
X039070Y016464D01*
X039070Y016328D02*
X027818Y016328D01*
X027955Y016192D02*
X039070Y016192D01*
X039070Y016055D02*
X028091Y016055D01*
X028227Y015919D02*
X039070Y015919D01*
X039070Y015783D02*
X028364Y015783D01*
X028500Y015647D02*
X039070Y015647D01*
X039070Y015510D02*
X028636Y015510D01*
X028772Y015374D02*
X039070Y015374D01*
X039070Y015238D02*
X028909Y015238D01*
X029045Y015101D02*
X039070Y015101D01*
X039070Y014965D02*
X029181Y014965D01*
X029318Y014829D02*
X039070Y014829D01*
X039070Y014692D02*
X029454Y014692D01*
X029590Y014556D02*
X039070Y014556D01*
X039070Y014420D02*
X029726Y014420D01*
X029863Y014284D02*
X039070Y014284D01*
X039070Y014147D02*
X029999Y014147D01*
X030135Y014011D02*
X039070Y014011D01*
X039070Y013875D02*
X030272Y013875D01*
X030408Y013738D02*
X039070Y013738D01*
X039070Y013602D02*
X030544Y013602D01*
X030681Y013466D02*
X039070Y013466D01*
X039070Y013330D02*
X030817Y013330D01*
X030953Y013193D02*
X039070Y013193D01*
X039070Y013057D02*
X031089Y013057D01*
X031226Y012921D02*
X039070Y012921D01*
X039070Y012784D02*
X031362Y012784D01*
X031498Y012648D02*
X039070Y012648D01*
X039070Y012512D02*
X031635Y012512D01*
X031771Y012375D02*
X039070Y012375D01*
X039070Y012239D02*
X031907Y012239D01*
X032044Y012103D02*
X039070Y012103D01*
X039070Y011967D02*
X032180Y011967D01*
X032316Y011830D02*
X039070Y011830D01*
X039070Y011694D02*
X032452Y011694D01*
X032589Y011558D02*
X039070Y011558D01*
X039070Y011421D02*
X032725Y011421D01*
X032861Y011285D02*
X039070Y011285D01*
X039070Y011149D02*
X032998Y011149D01*
X033134Y011013D02*
X039070Y011013D01*
X039070Y010876D02*
X033270Y010876D01*
X033406Y010740D02*
X039070Y010740D01*
X039070Y010604D02*
X033543Y010604D01*
X033679Y010467D02*
X039070Y010467D01*
X039070Y010331D02*
X038208Y010331D01*
X038150Y010389D02*
X037778Y010389D01*
X037515Y010126D01*
X037515Y009754D01*
X037778Y009491D01*
X038150Y009491D01*
X038413Y009754D01*
X038413Y010126D01*
X038150Y010389D01*
X038344Y010195D02*
X039070Y010195D01*
X039070Y010058D02*
X038413Y010058D01*
X038413Y009922D02*
X039070Y009922D01*
X039070Y009786D02*
X038413Y009786D01*
X038309Y009650D02*
X039070Y009650D01*
X039070Y009513D02*
X038172Y009513D01*
X038158Y009409D02*
X037995Y009409D01*
X037995Y008971D01*
X037933Y008971D01*
X037933Y008909D01*
X037495Y008909D01*
X037495Y008746D01*
X037770Y008471D01*
X037933Y008471D01*
X037933Y008909D01*
X037995Y008909D01*
X037995Y008471D01*
X038158Y008471D01*
X038433Y008746D01*
X038433Y008909D01*
X037995Y008909D01*
X037995Y008971D01*
X038433Y008971D01*
X038433Y009134D01*
X038158Y009409D01*
X038190Y009377D02*
X039070Y009377D01*
X039070Y009241D02*
X038327Y009241D01*
X038433Y009104D02*
X039070Y009104D01*
X039070Y008968D02*
X037995Y008968D01*
X037933Y008968D02*
X035178Y008968D01*
X035042Y009104D02*
X037495Y009104D01*
X037495Y009134D02*
X037495Y008971D01*
X037933Y008971D01*
X037933Y009409D01*
X037770Y009409D01*
X037495Y009134D01*
X037602Y009241D02*
X034906Y009241D01*
X034769Y009377D02*
X037738Y009377D01*
X037756Y009513D02*
X034633Y009513D01*
X034497Y009650D02*
X037620Y009650D01*
X037515Y009786D02*
X034361Y009786D01*
X034224Y009922D02*
X037515Y009922D01*
X037515Y010058D02*
X034088Y010058D01*
X033952Y010195D02*
X037584Y010195D01*
X037720Y010331D02*
X033815Y010331D01*
X035315Y008832D02*
X037495Y008832D01*
X037546Y008695D02*
X035451Y008695D01*
X035587Y008559D02*
X037682Y008559D01*
X037778Y008389D02*
X037515Y008126D01*
X037515Y007754D01*
X037778Y007491D01*
X038150Y007491D01*
X038413Y007754D01*
X038413Y008126D01*
X038150Y008389D01*
X037778Y008389D01*
X037676Y008287D02*
X035860Y008287D01*
X035723Y008423D02*
X039070Y008423D01*
X039070Y008559D02*
X038247Y008559D01*
X038383Y008695D02*
X039070Y008695D01*
X039070Y008832D02*
X038433Y008832D01*
X037995Y008832D02*
X037933Y008832D01*
X037933Y008695D02*
X037995Y008695D01*
X037995Y008559D02*
X037933Y008559D01*
X038252Y008287D02*
X039070Y008287D01*
X039070Y008150D02*
X038389Y008150D01*
X038413Y008014D02*
X039070Y008014D01*
X039070Y007878D02*
X038413Y007878D01*
X038400Y007741D02*
X039070Y007741D01*
X039070Y007605D02*
X038264Y007605D01*
X038206Y007333D02*
X039070Y007333D01*
X039070Y007469D02*
X036678Y007469D01*
X036814Y007333D02*
X037722Y007333D01*
X037586Y007196D02*
X036950Y007196D01*
X037086Y007060D02*
X037515Y007060D01*
X037515Y006924D02*
X037223Y006924D01*
X037359Y006787D02*
X037515Y006787D01*
X038272Y006515D02*
X039070Y006515D01*
X039070Y006651D02*
X038310Y006651D01*
X038413Y006787D02*
X039070Y006787D01*
X039070Y006924D02*
X038413Y006924D01*
X038413Y007060D02*
X039070Y007060D01*
X039070Y007196D02*
X038343Y007196D01*
X037664Y007605D02*
X036541Y007605D01*
X036405Y007741D02*
X037528Y007741D01*
X037515Y007878D02*
X036269Y007878D01*
X036132Y008014D02*
X037515Y008014D01*
X037540Y008150D02*
X035996Y008150D01*
X037933Y009104D02*
X037995Y009104D01*
X037995Y009241D02*
X037933Y009241D01*
X037933Y009377D02*
X037995Y009377D01*
X038408Y006378D02*
X039070Y006378D01*
X039070Y006242D02*
X038544Y006242D01*
X038598Y006106D02*
X039070Y006106D01*
X039070Y005970D02*
X038598Y005970D01*
X038598Y005833D02*
X039070Y005833D01*
X039070Y005697D02*
X038583Y005697D01*
X038446Y005561D02*
X039070Y005561D01*
X039070Y005424D02*
X038310Y005424D01*
X038251Y005288D02*
X039070Y005288D01*
X039070Y005152D02*
X038387Y005152D01*
X038413Y005016D02*
X039070Y005016D01*
X039070Y004879D02*
X038413Y004879D01*
X038402Y004743D02*
X039070Y004743D01*
X039070Y004607D02*
X038266Y004607D01*
X038405Y004334D02*
X039070Y004334D01*
X039070Y004198D02*
X038433Y004198D01*
X038433Y004061D02*
X039070Y004061D01*
X039070Y004470D02*
X033249Y004470D01*
X033553Y004334D02*
X037523Y004334D01*
X037495Y004198D02*
X033718Y004198D01*
X033840Y004061D02*
X037495Y004061D01*
X037933Y004061D02*
X037995Y004061D01*
X037995Y004198D02*
X037933Y004198D01*
X037933Y004334D02*
X037995Y004334D01*
X037663Y004607D02*
X027092Y004607D01*
X027229Y004743D02*
X037526Y004743D01*
X037515Y004879D02*
X027365Y004879D01*
X027501Y005016D02*
X037515Y005016D01*
X037541Y005152D02*
X027637Y005152D01*
X027774Y005288D02*
X037677Y005288D01*
X037780Y005424D02*
X027910Y005424D01*
X028046Y005561D02*
X037709Y005561D01*
X037572Y005697D02*
X028183Y005697D01*
X026956Y004470D02*
X032680Y004470D01*
X032375Y004334D02*
X026820Y004334D01*
X026683Y004198D02*
X032210Y004198D01*
X032089Y004061D02*
X026547Y004061D01*
X026411Y003925D02*
X032010Y003925D01*
X031951Y003789D02*
X026275Y003789D01*
X026138Y003653D02*
X031915Y003653D01*
X031895Y003516D02*
X026002Y003516D01*
X025866Y003380D02*
X031895Y003380D01*
X031910Y003244D02*
X025729Y003244D01*
X025593Y003107D02*
X031947Y003107D01*
X032001Y002971D02*
X025457Y002971D01*
X037933Y003516D02*
X037995Y003516D01*
X037995Y003653D02*
X037933Y003653D01*
X037933Y003789D02*
X037995Y003789D01*
X039070Y024778D02*
X018688Y024778D01*
X018552Y024915D02*
X039070Y024915D01*
X039070Y025051D02*
X018415Y025051D01*
X018279Y025187D02*
X039070Y025187D01*
X039070Y025324D02*
X018143Y025324D01*
X018007Y025460D02*
X039070Y025460D01*
X039070Y025596D02*
X017870Y025596D01*
X017734Y025732D02*
X039070Y025732D01*
X039070Y025869D02*
X017598Y025869D01*
X017461Y026005D02*
X039070Y026005D01*
X039070Y026141D02*
X017325Y026141D01*
X017189Y026278D02*
X039070Y026278D01*
X039070Y026414D02*
X017052Y026414D01*
X016916Y026550D02*
X030748Y026550D01*
X030796Y026503D02*
X030946Y026441D01*
X031109Y026441D01*
X031259Y026503D01*
X031374Y026618D01*
X031436Y026768D01*
X031436Y026931D01*
X031374Y027081D01*
X031259Y027196D01*
X031109Y027258D01*
X030946Y027258D01*
X030796Y027196D01*
X030681Y027081D01*
X030618Y026931D01*
X030618Y026768D01*
X030681Y026618D01*
X030796Y026503D01*
X030652Y026687D02*
X016780Y026687D01*
X019544Y029260D02*
X019671Y029133D01*
X019836Y029065D01*
X020014Y029065D01*
X020179Y029133D01*
X020305Y029260D01*
X020374Y029425D01*
X020374Y030203D01*
X020305Y030368D01*
X020179Y030495D01*
X020014Y030563D01*
X019836Y030563D01*
X019671Y030495D01*
X019544Y030368D01*
X019476Y030203D01*
X019476Y029425D01*
X019544Y029260D01*
X019537Y029276D02*
X000638Y029276D01*
X000638Y029140D02*
X019664Y029140D01*
X019481Y029412D02*
X000638Y029412D01*
X000638Y029549D02*
X019476Y029549D01*
X019476Y029685D02*
X000638Y029685D01*
X000638Y029821D02*
X019476Y029821D01*
X019476Y029958D02*
X000638Y029958D01*
X000638Y030094D02*
X019476Y030094D01*
X019487Y030230D02*
X000638Y030230D01*
X000638Y030366D02*
X019544Y030366D01*
X019690Y030503D02*
X000638Y030503D01*
X000638Y030639D02*
X039070Y030639D01*
X039070Y030503D02*
X025159Y030503D01*
X025179Y030495D02*
X025014Y030563D01*
X024836Y030563D01*
X024671Y030495D01*
X024544Y030368D01*
X024476Y030203D01*
X024476Y029425D01*
X024544Y029260D01*
X024671Y029133D01*
X024836Y029065D01*
X025014Y029065D01*
X025179Y029133D01*
X025305Y029260D01*
X025374Y029425D01*
X025374Y030203D01*
X025305Y030368D01*
X025179Y030495D01*
X025306Y030366D02*
X039070Y030366D01*
X039070Y030230D02*
X037176Y030230D01*
X037109Y030258D02*
X036946Y030258D01*
X036796Y030196D01*
X036681Y030081D01*
X036618Y029931D01*
X036618Y029768D01*
X036681Y029618D01*
X036796Y029503D01*
X036946Y029441D01*
X037109Y029441D01*
X037259Y029503D01*
X037374Y029618D01*
X037436Y029768D01*
X037436Y029931D01*
X037374Y030081D01*
X037259Y030196D01*
X037109Y030258D01*
X036878Y030230D02*
X031176Y030230D01*
X031109Y030258D02*
X030946Y030258D01*
X030796Y030196D01*
X030681Y030081D01*
X030618Y029931D01*
X030618Y029768D01*
X030681Y029618D01*
X030796Y029503D01*
X030946Y029441D01*
X031109Y029441D01*
X031259Y029503D01*
X031374Y029618D01*
X031436Y029768D01*
X031436Y029931D01*
X031374Y030081D01*
X031259Y030196D01*
X031109Y030258D01*
X030878Y030230D02*
X025363Y030230D01*
X025374Y030094D02*
X030693Y030094D01*
X030629Y029958D02*
X025374Y029958D01*
X025374Y029821D02*
X030618Y029821D01*
X030653Y029685D02*
X025374Y029685D01*
X025374Y029549D02*
X030750Y029549D01*
X031305Y029549D02*
X036750Y029549D01*
X036653Y029685D02*
X031402Y029685D01*
X031436Y029821D02*
X036618Y029821D01*
X036629Y029958D02*
X031425Y029958D01*
X031361Y030094D02*
X036693Y030094D01*
X037361Y030094D02*
X039070Y030094D01*
X039070Y029958D02*
X037425Y029958D01*
X037436Y029821D02*
X039070Y029821D01*
X039070Y029685D02*
X037402Y029685D01*
X037305Y029549D02*
X039070Y029549D01*
X039070Y029412D02*
X025369Y029412D01*
X025312Y029276D02*
X039070Y029276D01*
X039070Y029140D02*
X025185Y029140D01*
X024664Y029140D02*
X024185Y029140D01*
X024179Y029133D02*
X024305Y029260D01*
X024374Y029425D01*
X024374Y030203D01*
X024305Y030368D01*
X024179Y030495D01*
X024014Y030563D01*
X023836Y030563D01*
X023671Y030495D01*
X023544Y030368D01*
X023476Y030203D01*
X023476Y029425D01*
X023544Y029260D01*
X023671Y029133D01*
X023836Y029065D01*
X024014Y029065D01*
X024179Y029133D01*
X024312Y029276D02*
X024537Y029276D01*
X024481Y029412D02*
X024369Y029412D01*
X024374Y029549D02*
X024476Y029549D01*
X024476Y029685D02*
X024374Y029685D01*
X024374Y029821D02*
X024476Y029821D01*
X024476Y029958D02*
X024374Y029958D01*
X024374Y030094D02*
X024476Y030094D01*
X024487Y030230D02*
X024363Y030230D01*
X024306Y030366D02*
X024544Y030366D01*
X024690Y030503D02*
X024159Y030503D01*
X023690Y030503D02*
X023159Y030503D01*
X023179Y030495D02*
X023014Y030563D01*
X022836Y030563D01*
X022671Y030495D01*
X022544Y030368D01*
X022476Y030203D01*
X022476Y029425D01*
X022544Y029260D01*
X022671Y029133D01*
X022836Y029065D01*
X023014Y029065D01*
X023179Y029133D01*
X023305Y029260D01*
X023374Y029425D01*
X023374Y030203D01*
X023305Y030368D01*
X023179Y030495D01*
X023306Y030366D02*
X023544Y030366D01*
X023487Y030230D02*
X023363Y030230D01*
X023374Y030094D02*
X023476Y030094D01*
X023476Y029958D02*
X023374Y029958D01*
X023374Y029821D02*
X023476Y029821D01*
X023476Y029685D02*
X023374Y029685D01*
X023374Y029549D02*
X023476Y029549D01*
X023481Y029412D02*
X023369Y029412D01*
X023312Y029276D02*
X023537Y029276D01*
X023664Y029140D02*
X023185Y029140D01*
X022664Y029140D02*
X022185Y029140D01*
X022179Y029133D02*
X022305Y029260D01*
X022374Y029425D01*
X022374Y030203D01*
X022305Y030368D01*
X022179Y030495D01*
X022014Y030563D01*
X021836Y030563D01*
X021671Y030495D01*
X021544Y030368D01*
X021476Y030203D01*
X021476Y029425D01*
X021544Y029260D01*
X021671Y029133D01*
X021836Y029065D01*
X022014Y029065D01*
X022179Y029133D01*
X022312Y029276D02*
X022537Y029276D01*
X022481Y029412D02*
X022369Y029412D01*
X022374Y029549D02*
X022476Y029549D01*
X022476Y029685D02*
X022374Y029685D01*
X022374Y029821D02*
X022476Y029821D01*
X022476Y029958D02*
X022374Y029958D01*
X022374Y030094D02*
X022476Y030094D01*
X022487Y030230D02*
X022363Y030230D01*
X022306Y030366D02*
X022544Y030366D01*
X022690Y030503D02*
X022159Y030503D01*
X021690Y030503D02*
X021159Y030503D01*
X021179Y030495D02*
X021014Y030563D01*
X020836Y030563D01*
X020671Y030495D01*
X020544Y030368D01*
X020476Y030203D01*
X020476Y029425D01*
X020544Y029260D01*
X020671Y029133D01*
X020836Y029065D01*
X021014Y029065D01*
X021179Y029133D01*
X021305Y029260D01*
X021374Y029425D01*
X021374Y030203D01*
X021305Y030368D01*
X021179Y030495D01*
X021306Y030366D02*
X021544Y030366D01*
X021487Y030230D02*
X021363Y030230D01*
X021374Y030094D02*
X021476Y030094D01*
X021476Y029958D02*
X021374Y029958D01*
X021374Y029821D02*
X021476Y029821D01*
X021476Y029685D02*
X021374Y029685D01*
X021374Y029549D02*
X021476Y029549D01*
X021481Y029412D02*
X021369Y029412D01*
X021312Y029276D02*
X021537Y029276D01*
X021664Y029140D02*
X021185Y029140D01*
X020664Y029140D02*
X020185Y029140D01*
X020312Y029276D02*
X020537Y029276D01*
X020481Y029412D02*
X020369Y029412D01*
X020374Y029549D02*
X020476Y029549D01*
X020476Y029685D02*
X020374Y029685D01*
X020374Y029821D02*
X020476Y029821D01*
X020476Y029958D02*
X020374Y029958D01*
X020374Y030094D02*
X020476Y030094D01*
X020487Y030230D02*
X020363Y030230D01*
X020306Y030366D02*
X020544Y030366D01*
X020690Y030503D02*
X020159Y030503D01*
X013409Y025324D02*
X010943Y025324D01*
X010807Y025460D02*
X013272Y025460D01*
X013136Y025596D02*
X010670Y025596D01*
X010817Y025732D02*
X011230Y025732D01*
X011093Y025869D02*
X010953Y025869D01*
X010972Y026005D02*
X011074Y026005D01*
X011074Y026141D02*
X010972Y026141D01*
X010954Y026278D02*
X011092Y026278D01*
X011228Y026414D02*
X010818Y026414D01*
X010316Y026550D02*
X012102Y026550D01*
X012238Y026687D02*
X010180Y026687D01*
X011818Y026414D02*
X011965Y026414D01*
X011953Y025869D02*
X012093Y025869D01*
X012230Y025732D02*
X011817Y025732D01*
X012817Y025732D02*
X013000Y025732D01*
X008238Y026687D02*
X000638Y026687D01*
X000638Y026823D02*
X030618Y026823D01*
X030630Y026959D02*
X000638Y026959D01*
X000638Y027095D02*
X030695Y027095D01*
X030882Y027232D02*
X000638Y027232D01*
X000638Y027368D02*
X039070Y027368D01*
X039070Y027504D02*
X000638Y027504D01*
X000638Y027641D02*
X039070Y027641D01*
X039070Y027777D02*
X000638Y027777D01*
X000638Y027913D02*
X039070Y027913D01*
X039070Y028049D02*
X000638Y028049D01*
X000638Y028186D02*
X039070Y028186D01*
X039070Y028322D02*
X000638Y028322D01*
X000638Y028458D02*
X039070Y028458D01*
X039070Y028595D02*
X000638Y028595D01*
X000638Y028731D02*
X039070Y028731D01*
X039070Y028867D02*
X000638Y028867D01*
X000638Y029004D02*
X039070Y029004D01*
X039070Y030775D02*
X000638Y030775D01*
X000638Y030912D02*
X039070Y030912D01*
X039070Y031048D02*
X000638Y031048D01*
X000638Y031184D02*
X039070Y031184D01*
X039070Y031321D02*
X000638Y031321D01*
X000638Y031457D02*
X039070Y031457D01*
X039070Y031593D02*
X000638Y031593D01*
X000638Y031729D02*
X039070Y031729D01*
X037192Y027247D02*
X037128Y027268D01*
X037061Y027278D01*
X037038Y027278D01*
X037038Y026861D01*
X037016Y026861D01*
X037016Y027278D01*
X036993Y027278D01*
X036927Y027268D01*
X036863Y027247D01*
X036802Y027216D01*
X036748Y027177D01*
X036700Y027129D01*
X036660Y027074D01*
X036630Y027014D01*
X036609Y026950D01*
X036598Y026883D01*
X036598Y026861D01*
X037016Y026861D01*
X037016Y026838D01*
X037038Y026838D01*
X037038Y026421D01*
X037061Y026421D01*
X037128Y026431D01*
X037192Y026452D01*
X037252Y026483D01*
X037307Y026522D01*
X037354Y026570D01*
X037394Y026625D01*
X037425Y026685D01*
X037446Y026749D01*
X037456Y026816D01*
X037456Y026838D01*
X037038Y026838D01*
X037038Y026861D01*
X037456Y026861D01*
X037456Y026883D01*
X037446Y026950D01*
X037425Y027014D01*
X037394Y027074D01*
X037354Y027129D01*
X037307Y027177D01*
X037252Y027216D01*
X037192Y027247D01*
X037222Y027232D02*
X039070Y027232D01*
X039070Y027095D02*
X037379Y027095D01*
X037442Y026959D02*
X039070Y026959D01*
X039070Y026823D02*
X037456Y026823D01*
X037425Y026687D02*
X039070Y026687D01*
X039070Y026550D02*
X037335Y026550D01*
X037038Y026550D02*
X037016Y026550D01*
X037016Y026421D02*
X037016Y026838D01*
X036598Y026838D01*
X036598Y026816D01*
X036609Y026749D01*
X036630Y026685D01*
X036660Y026625D01*
X036700Y026570D01*
X036748Y026522D01*
X036802Y026483D01*
X036863Y026452D01*
X036927Y026431D01*
X036993Y026421D01*
X037016Y026421D01*
X037016Y026687D02*
X037038Y026687D01*
X037038Y026823D02*
X037016Y026823D01*
X037016Y026959D02*
X037038Y026959D01*
X037038Y027095D02*
X037016Y027095D01*
X037016Y027232D02*
X037038Y027232D01*
X036833Y027232D02*
X031173Y027232D01*
X031359Y027095D02*
X036676Y027095D01*
X036612Y026959D02*
X031424Y026959D01*
X031436Y026823D02*
X036598Y026823D01*
X036629Y026687D02*
X031402Y026687D01*
X031306Y026550D02*
X036720Y026550D01*
X006228Y026414D02*
X005818Y026414D01*
X005954Y026278D02*
X006092Y026278D01*
X006074Y026141D02*
X005972Y026141D01*
X005972Y026005D02*
X006074Y026005D01*
X006093Y025869D02*
X005953Y025869D01*
X005817Y025732D02*
X006180Y025732D01*
D21*
X005681Y019688D03*
X005287Y014964D03*
X012767Y014964D03*
X013555Y019688D03*
M02*
